<?xml version="1.0" encoding="utf-8"?>
<!-- Generator: Adobe Illustrator 22.0.0, SVG Export Plug-In . SVG Version: 6.00 Build 0)  -->
<svg version="1.1" id="Layer_1" xmlns="http://www.w3.org/2000/svg" xmlns:xlink="http://www.w3.org/1999/xlink" x="0px" y="0px"
	 viewBox="0 0 526.9 190.7" style="enable-background:new 0 0 526.9 190.7;" xml:space="preserve">
<style type="text/css">
	.st0{fill-rule:evenodd;clip-rule:evenodd;fill:#FFFFFF;}
	.st1{fill:#FFFFFF;}
	.st2{opacity:0;fill:#FFFFFF;}
</style>
<path class="st0" d="M34.8,79.2h0.6c0.5,2,1.3,3.4,2.2,4.4c0.9,1,2.1,1.4,3.6,1.4c1.2,0,2.3-0.4,3.1-1.3c0.8-0.8,1.2-1.9,1.2-3.2
	c0-1-0.2-1.9-0.7-2.6c-0.5-0.7-1.5-1.5-3-2.4c-0.2-0.1-0.5-0.3-0.9-0.5c-1.9-1.1-3.1-1.9-3.5-2.2c-1-0.8-1.7-1.6-2.1-2.3
	c-0.4-0.7-0.6-1.6-0.6-2.5c0-1.6,0.6-2.9,1.7-4c1.1-1,2.6-1.6,4.3-1.6c0.9,0,1.9,0.2,2.9,0.5c1,0.3,1.6,0.5,1.8,0.5
	c0.1,0,0.2,0,0.3-0.1c0.1-0.1,0.2-0.2,0.3-0.4h0.8v5.3h-0.5c-0.5-1.7-1.3-3-2.2-3.9c-1-0.9-2.1-1.3-3.4-1.3c-1.1,0-2,0.4-2.8,1.1
	C37.3,65,37,65.9,37,67c0,1,0.4,1.9,1.1,2.8c0.7,0.8,2.2,1.8,4.4,3.1c2.3,1.3,3.7,2.3,4.4,3.2c0.6,0.9,1,2,1,3.3
	c0,1.8-0.6,3.2-1.9,4.4c-1.3,1.2-2.8,1.8-4.7,1.8c-1.1,0-2.1-0.2-3.2-0.5c-1.1-0.3-1.7-0.5-1.7-0.5c-0.2,0-0.3,0-0.4,0.1
	c-0.1,0.1-0.2,0.2-0.3,0.3H35L34.8,79.2L34.8,79.2z M53.2,74c0,3.3,0.8,5.9,2.3,8c1.5,2,3.5,3.1,5.8,3.1c0.9,0,1.7-0.1,2.5-0.4
	c0.8-0.3,1.4-0.7,2-1.3c1.1-1.1,2-2.4,2.6-4.1c0.6-1.6,0.9-3.4,0.9-5.2c0-3.3-0.7-5.9-2.2-7.9c-1.4-2-3.4-3-5.7-3
	c-1.1,0-2.1,0.2-3.1,0.7c-1,0.5-1.9,1.2-2.6,2.1c-0.8,1-1.5,2.2-1.9,3.5C53.4,70.8,53.2,72.4,53.2,74L53.2,74z M61.2,85.6
	c-1.4,0-2.7-0.2-4-0.7c-1.2-0.5-2.3-1.1-3.2-1.9c-1.3-1.2-2.3-2.6-2.9-4c-0.6-1.5-0.9-3.1-0.9-4.9c0-1.7,0.3-3.2,0.8-4.6
	c0.5-1.4,1.3-2.7,2.4-3.8c1-1,2.2-1.8,3.5-2.4c1.3-0.6,2.8-0.8,4.2-0.8c3.3,0,5.9,1,7.9,3.1c2,2.1,3,4.7,3,8.1
	c0,1.3-0.2,2.6-0.5,3.8c-0.4,1.2-0.9,2.3-1.6,3.4c-1,1.5-2.3,2.7-3.8,3.5C64.7,85.2,63,85.6,61.2,85.6L61.2,85.6z M94.1,77.8
	L93.8,83c-1.3,0.9-2.7,1.6-4.1,2c-1.4,0.4-3,0.7-4.6,0.7c-1.5,0-3-0.3-4.3-0.8c-1.4-0.5-2.5-1.3-3.6-2.3c-1.1-1-1.9-2.3-2.4-3.7
	c-0.5-1.4-0.8-3-0.8-4.7c0-3.4,1-6.2,3.1-8.3c2.1-2.1,4.7-3.2,8.1-3.2c0.8,0,1.7,0.1,2.7,0.3c0.9,0.2,2,0.6,3.2,1.1
	c0.2,0.1,0.4,0.2,0.7,0.3c0.4,0.2,0.7,0.3,0.9,0.3c0.1,0,0.3,0,0.3-0.1c0.1-0.1,0.1-0.2,0.2-0.3h0.9v6.1h-0.4
	c-0.7-2.2-1.8-4-3.2-5.2c-1.4-1.2-3.1-1.8-5.1-1.8c-2.5,0-4.5,1-6,2.9c-1.6,2-2.3,4.5-2.3,7.7c0,3.2,0.8,5.7,2.5,7.7
	c1.7,2,3.8,3,6.5,3c2,0,3.6-0.6,4.9-1.7s2.3-2.8,2.8-5H94.1L94.1,77.8z M96.8,85.2v-0.8l2.3-0.1V64l-2.3-0.1V63c0.4,0,0.9,0,1.4,0
	c0.5,0,1.3,0,2.3,0c1,0,1.8,0,2.2,0c0.5,0,0.9,0,1.4,0l0,0.8l-2.2,0.1v20.3l2.2,0.1l0,0.8c-0.6,0-1.3-0.1-1.9-0.1
	c-0.6,0-1.2,0-1.8,0c-0.6,0-1.2,0-1.8,0C98,85.2,97.4,85.2,96.8,85.2L96.8,85.2z M122.8,63.1v4.8h-0.9v-0.6c0-1.4-0.2-2.4-0.7-2.8
	c-0.5-0.4-1.7-0.7-3.6-0.7h-5.9l0,9.4h2.7c0.9,0,1.6-0.1,2-0.2c0.4-0.1,0.7-0.3,0.8-0.5c0.2-0.4,0.4-1.4,0.5-3c0-0.1,0-0.2,0-0.3
	h0.9c-0.1,1-0.1,2-0.1,2.9c0,0.9,0,1.7,0,2.5c0,0.7,0,1.3,0,1.8c0,0.5,0,1,0,1.5h-0.9c0-0.1,0-0.1,0-0.2c-0.1-1.8-0.2-2.9-0.4-3.3
	c-0.1-0.2-0.3-0.3-0.6-0.4c-0.3-0.1-1-0.1-2-0.1h-3l0,8.5c0,0.8,0.1,1.4,0.4,1.6c0.2,0.2,0.7,0.4,1.5,0.4h8.3l1.5-5h0.7l-0.4,5.8
	h-11.9c-0.9,0-1.7,0-2.6,0c-0.8,0-1.7,0-2.5,0.1l0-0.8l2.3-0.1V64l-2.3-0.1l0-0.8c0.9,0,1.8,0.1,2.7,0.1c0.9,0,1.8,0,2.7,0H122.8
	L122.8,63.1z M135.1,84.5c2.9,0,5.2-0.9,6.9-2.8c1.7-1.9,2.5-4.4,2.5-7.6c0-3.2-1-5.8-3-7.7c-2-1.9-4.7-2.9-8.1-2.9
	c-1,0-1.6,0-1.8,0.1c-0.3,0.1-0.5,0.2-0.6,0.5c-0.1,0.1-0.1,1.2-0.2,3.1c-0.1,1.9-0.1,4.4-0.1,7.3c0,3.3,0,5.6,0,6.9
	c0,1.3,0.1,2.1,0.1,2.3c0.1,0.3,0.5,0.5,1.1,0.6C132.7,84.5,133.7,84.5,135.1,84.5L135.1,84.5z M125.8,85.2l0-0.8l2.2-0.1V64
	l-2.2-0.1V63c0.1,0,0.2,0,0.4,0c1.2,0,2.1,0,2.7,0c1.3,0,2.7,0,4.2-0.1c1.5-0.1,2.4-0.1,2.6-0.1c3.7,0,6.6,1,8.7,2.9
	c2.1,2,3.1,4.7,3.1,8.2c0,2.1-0.5,4-1.4,5.7c-1,1.7-2.3,3-4,4c-0.9,0.5-2,0.9-3.1,1.1c-1.2,0.2-2.6,0.3-4.3,0.3c-0.3,0-1,0-2.1,0
	c-1.1,0-2,0-2.7,0c-0.6,0-1.2,0-1.9,0C127.2,85.2,126.5,85.2,125.8,85.2L125.8,85.2z M156.3,66.6l-3.1,8.3h6.2L156.3,66.6
	L156.3,66.6z M147,85.2v-1l0.9-0.1c0.3,0,0.5-0.1,0.7-0.3c0.2-0.2,0.4-0.4,0.5-0.8l7.8-20.5h0.3l8.1,20.2c0.2,0.6,0.4,1,0.7,1.2
	c0.2,0.2,0.6,0.3,1,0.3h0.1l0,1c-0.6,0-1.1-0.1-1.7-0.1c-0.6,0-1.2,0-1.8,0c-0.6,0-1.2,0-1.8,0c-0.6,0-1.3,0-1.9,0.1v-0.9l1.6-0.1
	c0.4,0,0.7-0.1,0.9-0.1c0.1-0.1,0.2-0.1,0.2-0.2c0,0,0,0,0-0.1c0,0,0-0.1,0-0.2l-3-8.1H153l-2.7,7.6c-0.1,0.2-0.1,0.3-0.2,0.4
	c0,0.1,0,0.2,0,0.3c0,0.2,0.2,0.3,0.6,0.3c0,0,0.1,0,0.1,0l1.6,0.1l0,0.9c-0.4,0-0.9-0.1-1.3-0.1c-0.4,0-0.9,0-1.3,0
	c-0.4,0-0.9,0-1.3,0C148,85.2,147.5,85.2,147,85.2L147,85.2z M177.5,84.5c2.9,0,5.2-0.9,6.9-2.8c1.7-1.9,2.5-4.4,2.5-7.6
	c0-3.2-1-5.8-3-7.7c-2-1.9-4.7-2.9-8.1-2.9c-1,0-1.6,0-1.8,0.1c-0.3,0.1-0.5,0.2-0.6,0.5c-0.1,0.1-0.1,1.2-0.2,3.1
	c-0.1,1.9-0.1,4.4-0.1,7.3c0,3.3,0,5.6,0,6.9c0,1.3,0.1,2.1,0.1,2.3c0.1,0.3,0.5,0.5,1.1,0.6C175.1,84.5,176.1,84.5,177.5,84.5
	L177.5,84.5z M168.2,85.2l0-0.8l2.2-0.1V64l-2.2-0.1V63c0.1,0,0.2,0,0.4,0c1.2,0,2.1,0,2.7,0c1.3,0,2.7,0,4.2-0.1
	c1.5-0.1,2.4-0.1,2.6-0.1c3.7,0,6.6,1,8.7,2.9c2.1,2,3.1,4.7,3.1,8.2c0,2.1-0.5,4-1.4,5.7c-1,1.7-2.3,3-4,4c-0.9,0.5-2,0.9-3.1,1.1
	c-1.2,0.2-2.6,0.3-4.3,0.3c-0.3,0-1,0-2.1,0c-1.1,0-2,0-2.7,0c-0.6,0-1.2,0-1.9,0C169.6,85.2,168.9,85.2,168.2,85.2L168.2,85.2z
	 M208.1,63.1v4.8h-0.9v-0.6c0-1.4-0.2-2.4-0.7-2.8c-0.5-0.4-1.7-0.7-3.6-0.7H197l0,9.4h2.7c0.9,0,1.6-0.1,2-0.2
	c0.4-0.1,0.7-0.3,0.8-0.5c0.2-0.4,0.4-1.4,0.5-3c0-0.1,0-0.2,0-0.3h0.9c-0.1,1-0.1,2-0.1,2.9c0,0.9,0,1.7,0,2.5c0,0.7,0,1.3,0,1.8
	c0,0.5,0,1,0,1.5h-0.9c0-0.1,0-0.1,0-0.2c-0.1-1.8-0.2-2.9-0.4-3.3c-0.1-0.2-0.3-0.3-0.6-0.4c-0.3-0.1-1-0.1-2-0.1h-3l0,8.5
	c0,0.8,0.1,1.4,0.4,1.6c0.2,0.2,0.7,0.4,1.5,0.4h8.3l1.5-5h0.7l-0.4,5.8H197c-0.9,0-1.7,0-2.6,0c-0.8,0-1.7,0-2.5,0.1l0-0.8l2.3-0.1
	V64l-2.3-0.1l0-0.8c0.9,0,1.8,0.1,2.7,0.1c0.9,0,1.8,0,2.7,0H208.1L208.1,63.1z"/>
<path class="st0" d="M18.2,116.9c0.4,0.1,0.9,0.1,1.3,0.1c0.4,0,0.8,0,1.2,0c2.9,0,5.1-0.7,6.5-2c1.4-1.3,2.2-3.3,2.2-5.9
	c0-2.4-0.8-4.3-2.3-5.6c-1.5-1.3-3.7-1.9-6.6-1.9c-1,0-1.6,0.1-1.9,0.2c-0.3,0.1-0.4,0.4-0.4,0.8V116.9L18.2,116.9z M10.8,133.7
	l0-1.2l3.4-0.2v-30l-3.4-0.2v-1.2c0.1,0,0.2,0,0.3,0c1.6,0.1,2.8,0.1,3.5,0.1c1.6,0,3.4-0.1,5.5-0.2c2.1-0.1,3.3-0.2,3.8-0.2
	c3.1,0,5.5,0.7,7.1,2.2c1.7,1.5,2.5,3.5,2.5,6.1c0,3.1-1,5.4-3.1,6.8c-2,1.4-5.3,2.2-9.7,2.2h-2.5v14.4l3.6,0.2l0,1.2
	c-0.9,0-1.8-0.1-2.8-0.1c-0.9,0-1.8,0-2.7,0c-0.9,0-1.8,0-2.8,0C12.6,133.6,11.7,133.7,10.8,133.7L10.8,133.7z M36.8,124.8h0.9
	c0.8,2.9,1.9,5.1,3.3,6.5c1.4,1.4,3.2,2.1,5.3,2.1c1.8,0,3.4-0.6,4.6-1.9c1.2-1.3,1.8-2.8,1.8-4.7c0-1.5-0.4-2.8-1.1-3.8
	c-0.7-1-2.2-2.2-4.4-3.5c-0.3-0.2-0.7-0.4-1.3-0.7c-2.9-1.7-4.6-2.8-5.1-3.2c-1.5-1.2-2.6-2.4-3.2-3.4c-0.6-1.1-0.9-2.3-0.9-3.8
	c0-2.4,0.8-4.4,2.5-5.9c1.7-1.5,3.8-2.3,6.4-2.3c1.4,0,2.8,0.2,4.3,0.7c1.6,0.5,2.4,0.7,2.6,0.7c0.2,0,0.3-0.1,0.5-0.2
	c0.2-0.1,0.3-0.3,0.5-0.5h1.2v7.8h-0.8c-0.8-2.5-1.9-4.4-3.3-5.7c-1.4-1.3-3.1-2-5.1-2c-1.6,0-3,0.5-4.1,1.6c-1.1,1.1-1.7,2.4-1.7,4
	c0,1.5,0.5,2.9,1.6,4.1c1.1,1.2,3.2,2.7,6.5,4.6c3.4,1.9,5.5,3.5,6.5,4.8c1,1.3,1.4,3,1.4,4.9c0,2.6-0.9,4.8-2.8,6.6
	c-1.9,1.8-4.2,2.7-7,2.7c-1.6,0-3.2-0.2-4.8-0.7c-1.6-0.5-2.5-0.7-2.5-0.7c-0.2,0-0.4,0.1-0.6,0.2c-0.2,0.1-0.4,0.3-0.5,0.5H37
	L36.8,124.8L36.8,124.8z M60.2,133.7v-1.2l3.4-0.2v-30l-3.4-0.2v-1.2c0.7,0,1.4,0,2.1,0c0.8,0,1.9,0,3.3,0c1.5,0,2.6,0,3.3,0
	c0.7,0,1.4,0,2,0l0,1.2l-3.3,0.2v30l3.3,0.2l0,1.2c-0.9,0-1.9-0.1-2.8-0.1c-0.9,0-1.8,0-2.7,0c-0.9,0-1.8,0-2.6,0
	C61.9,133.6,61.1,133.7,60.2,133.7L60.2,133.7z M104.1,122.7l-0.3,7.7c-2,1.3-4,2.3-6.1,2.9c-2.1,0.6-4.4,1-6.8,1
	c-2.3,0-4.4-0.4-6.4-1.2c-2-0.8-3.8-1.9-5.3-3.5c-1.6-1.5-2.8-3.4-3.6-5.5c-0.8-2.1-1.2-4.4-1.2-7c0-5.1,1.5-9.2,4.5-12.3
	c3-3.1,7-4.7,11.9-4.7c1.2,0,2.5,0.2,3.9,0.5c1.4,0.3,2.9,0.9,4.7,1.6c0.2,0.1,0.6,0.3,1,0.5c0.6,0.3,1.1,0.5,1.3,0.5
	c0.2,0,0.4-0.1,0.5-0.2c0.1-0.1,0.2-0.3,0.3-0.5h1.3v9h-0.7c-1.1-3.3-2.6-5.9-4.7-7.6c-2.1-1.8-4.6-2.6-7.5-2.6
	c-3.7,0-6.6,1.4-8.9,4.3c-2.3,2.9-3.5,6.7-3.5,11.3c0,4.7,1.2,8.5,3.7,11.4c2.5,2.9,5.7,4.4,9.6,4.4c2.9,0,5.3-0.9,7.3-2.6
	c2-1.7,3.4-4.2,4.1-7.4H104.1L104.1,122.7z M119,106.1l-4.6,12.3h9.1L119,106.1L119,106.1z M105.3,133.7v-1.5l1.4-0.1
	c0.4,0,0.8-0.1,1-0.4c0.3-0.2,0.5-0.6,0.7-1.2l11.6-30.4h0.5l12,29.9c0.3,0.9,0.7,1.5,1,1.8c0.3,0.3,0.9,0.4,1.5,0.4h0.2l0,1.5
	c-0.8,0-1.7-0.1-2.6-0.1c-0.9,0-1.8,0-2.7,0c-0.9,0-1.7,0-2.7,0c-0.9,0-1.9,0.1-2.8,0.1v-1.3l2.4-0.1c0.7,0,1.1-0.1,1.3-0.2
	c0.2-0.1,0.3-0.2,0.3-0.4c0,0,0-0.1,0-0.1c0-0.1,0-0.1-0.1-0.2l-4.5-11.9h-9.8l-4.1,11.2c-0.1,0.2-0.2,0.4-0.2,0.6
	c0,0.2-0.1,0.3-0.1,0.4c0,0.3,0.3,0.5,0.9,0.5c0.1,0,0.1,0,0.1,0l2.4,0.1l0,1.4c-0.6,0-1.3-0.1-1.9-0.1c-0.6,0-1.3,0-1.9,0
	c-0.6,0-1.3,0-1.9,0C106.7,133.6,106,133.7,105.3,133.7L105.3,133.7z M162.4,102.2l-3.4-0.2v-1.2c0.5,0,1.1,0,1.6,0
	c0.6,0,1.5,0,2.6,0c1.2,0,2,0,2.6,0c0.6,0,1.1,0,1.6,0l0,1.2l-3.5,0.2c-0.1,1.8-0.1,5.5-0.2,11.1c0,1.5,0,2.6,0,3.3l-0.3,17h-0.5
	l-22.5-28.3l0.4,27l3.4,0.2v1.2c-0.7,0-1.4-0.1-2.1-0.1c-0.7,0-1.4,0-2.1,0c-0.7,0-1.4,0-2.1,0c-0.7,0-1.4,0.1-2.1,0.1v-1.2l3.3-0.2
	c0-2.2,0.1-4.6,0.1-7c0-2.4,0-4.9,0-7.5v-13.4c-0.4-0.6-0.9-1.1-1.6-1.5c-0.7-0.4-1.5-0.7-2.5-0.9v-1.2h6.8l20.3,25.7L162.4,102.2
	L162.4,102.2z M180.6,106.1l-4.6,12.3h9.1L180.6,106.1L180.6,106.1z M167,133.7v-1.5l1.4-0.1c0.4,0,0.8-0.1,1-0.4
	c0.3-0.2,0.5-0.6,0.7-1.2l11.6-30.4h0.5l12,29.9c0.3,0.9,0.7,1.5,1,1.8c0.3,0.3,0.9,0.4,1.5,0.4h0.2l0,1.5c-0.8,0-1.7-0.1-2.6-0.1
	c-0.9,0-1.8,0-2.7,0c-0.9,0-1.7,0-2.7,0c-0.9,0-1.9,0.1-2.8,0.1v-1.3l2.4-0.1c0.7,0,1.1-0.1,1.3-0.2c0.2-0.1,0.3-0.2,0.3-0.4
	c0,0,0-0.1,0-0.1c0-0.1,0-0.1-0.1-0.2l-4.5-11.9h-9.8l-4.1,11.2c-0.1,0.2-0.2,0.4-0.2,0.6c0,0.2-0.1,0.3-0.1,0.4
	c0,0.3,0.3,0.5,0.9,0.5c0.1,0,0.1,0,0.1,0l2.4,0.1l0,1.4c-0.6,0-1.3-0.1-1.9-0.1c-0.6,0-1.3,0-1.9,0c-0.6,0-1.3,0-1.9,0
	C168.3,133.6,167.7,133.7,167,133.7L167,133.7z M205.5,133.6c-1.2,0-2.4,0-3.6,0c-1.2,0-2.4,0.1-3.6,0.1v-1.2l3.4-0.2v-30l-3.4-0.2
	v-1.2c0.7,0,1.4,0,2.1,0c0.8,0,1.9,0,3.3,0c1.5,0,2.5,0,3.3,0c0.7,0,1.3,0,1.9,0l0,1.2l-3.1,0.2l0,27.6c0,1,0.2,1.6,0.6,2
	c0.4,0.4,1.1,0.6,2,0.6h10.7l2.5-7.8h1.3l-0.8,8.8H205.5L205.5,133.6z M225,133.7v-1.2l3.4-0.2v-30l-3.4-0.2v-1.2c0.7,0,1.4,0,2.1,0
	c0.8,0,1.9,0,3.3,0c1.5,0,2.6,0,3.3,0c0.7,0,1.4,0,2,0l0,1.2l-3.3,0.2v30l3.3,0.2l0,1.2c-0.9,0-1.9-0.1-2.8-0.1c-0.9,0-1.8,0-2.7,0
	c-0.9,0-1.8,0-2.6,0C226.8,133.6,225.9,133.7,225,133.7L225,133.7z M235,92.4l-6.1,5.2h-1.1l5.4-6.9c0.3-0.4,0.6-0.7,0.9-0.9
	c0.2-0.2,0.5-0.2,0.7-0.2c0.3,0,0.6,0.1,0.9,0.3c0.2,0.2,0.4,0.5,0.4,0.8c0,0.2-0.1,0.5-0.2,0.7C235.7,91.7,235.4,92,235,92.4
	L235,92.4z M250.1,102H244c-1.8,0-2.9,0.4-3.5,1.1c-0.6,0.7-1.1,2.7-1.5,5.9h-1.3l0.4-8.2c0.2,0,0.5,0,0.8,0.1
	c1,0.1,1.7,0.1,2.1,0.1h22.7c0.4,0,1.2,0,2.4-0.1c0.5,0,0.8,0,1.1-0.1l-0.4,7.9h-1.2c-0.1-0.7-0.1-1.6-0.2-2.6c-0.1-2.7-1-4-2.6-4
	h-8.7v30.2l3.3,0.2v1.2c-0.9,0-1.9-0.1-2.8-0.1c-0.9,0-1.8,0-2.8,0c-0.9,0-1.8,0-2.7,0c-0.9,0-1.8,0.1-2.7,0.1v-1.2l3.4-0.2V102
	L250.1,102z M269.6,133.7v-1.2l3.4-0.2v-30l-3.4-0.2v-1.2c0.7,0,1.4,0,2.1,0c0.8,0,1.9,0,3.3,0c1.5,0,2.6,0,3.3,0c0.7,0,1.4,0,2,0
	l0,1.2l-3.3,0.2v30l3.3,0.2l0,1.2c-0.9,0-1.9-0.1-2.8-0.1c-0.9,0-1.8,0-2.7,0c-0.9,0-1.8,0-2.6,0
	C271.3,133.6,270.4,133.7,269.6,133.7L269.6,133.7z M313.5,122.7l-0.3,7.7c-2,1.3-4,2.3-6.1,2.9c-2.1,0.6-4.4,1-6.8,1
	c-2.3,0-4.4-0.4-6.4-1.2c-2-0.8-3.8-1.9-5.3-3.5c-1.6-1.5-2.8-3.4-3.6-5.5c-0.8-2.1-1.2-4.4-1.2-7c0-5.1,1.5-9.2,4.5-12.3
	c3-3.1,7-4.7,11.9-4.7c1.2,0,2.5,0.2,3.9,0.5c1.4,0.3,2.9,0.9,4.7,1.6c0.2,0.1,0.6,0.3,1,0.5c0.6,0.3,1.1,0.5,1.3,0.5
	c0.2,0,0.4-0.1,0.5-0.2c0.1-0.1,0.2-0.3,0.3-0.5h1.3v9h-0.6c-1-3.3-2.6-5.9-4.7-7.6c-2.1-1.8-4.6-2.6-7.5-2.6
	c-3.7,0-6.6,1.4-8.9,4.3c-2.3,2.9-3.5,6.7-3.5,11.3c0,4.7,1.3,8.5,3.7,11.4c2.5,2.9,5.7,4.4,9.6,4.4c2.9,0,5.3-0.9,7.3-2.6
	c2-1.7,3.4-4.2,4.1-7.4H313.5L313.5,122.7z M328.4,106.1l-4.6,12.3h9.1L328.4,106.1L328.4,106.1z M314.7,133.7v-1.5l1.4-0.1
	c0.4,0,0.8-0.1,1-0.4c0.3-0.2,0.5-0.6,0.7-1.2l11.6-30.4h0.5l12,29.9c0.3,0.9,0.7,1.5,1,1.8c0.3,0.3,0.9,0.4,1.5,0.4h0.2l0,1.5
	c-0.8,0-1.7-0.1-2.6-0.1c-0.9,0-1.8,0-2.7,0c-0.9,0-1.7,0-2.7,0c-0.9,0-1.9,0.1-2.8,0.1v-1.3l2.4-0.1c0.7,0,1.1-0.1,1.3-0.2
	c0.2-0.1,0.3-0.2,0.3-0.4c0,0,0-0.1,0-0.1c0-0.1,0-0.1-0.1-0.2l-4.5-11.9h-9.8l-4,11.2c-0.1,0.2-0.2,0.4-0.2,0.6
	c0,0.2-0.1,0.3-0.1,0.4c0,0.3,0.3,0.5,0.9,0.5c0.1,0,0.1,0,0.1,0l2.4,0.1l0,1.4c-0.6,0-1.3-0.1-1.9-0.1c-0.6,0-1.3,0-1.9,0
	c-0.6,0-1.3,0-1.9,0C316.1,133.6,315.4,133.7,314.7,133.7L314.7,133.7z"/>
<path class="st0" d="M63.7,167.1c2.5,0,4.5-0.8,6-2.4c1.5-1.6,2.2-3.8,2.2-6.6c0-2.8-0.9-5.1-2.6-6.7c-1.7-1.7-4.1-2.5-7-2.5
	c-0.8,0-1.4,0-1.6,0.1c-0.2,0.1-0.4,0.2-0.5,0.4c-0.1,0.1-0.1,1-0.2,2.7c0,1.7-0.1,3.8-0.1,6.4c0,2.9,0,4.9,0,6c0,1.1,0.1,1.8,0.1,2
	c0.1,0.2,0.4,0.4,1,0.5C61.7,167,62.5,167.1,63.7,167.1L63.7,167.1z M55.6,167.6l0-0.7l1.9-0.1v-17.7l-1.9-0.1v-0.7
	c0.1,0,0.2,0,0.3,0c1.1,0,1.9,0,2.3,0c1.1,0,2.3,0,3.6-0.1c1.3-0.1,2.1-0.1,2.2-0.1c3.2,0,5.7,0.8,7.5,2.5c1.8,1.7,2.7,4.1,2.7,7.1
	c0,1.8-0.4,3.5-1.2,5c-0.8,1.5-2,2.6-3.5,3.5c-0.8,0.4-1.7,0.8-2.7,1c-1,0.2-2.3,0.3-3.7,0.3c-0.3,0-0.9,0-1.8,0c-0.9,0-1.7,0-2.3,0
	c-0.5,0-1.1,0-1.6,0C56.9,167.6,56.3,167.6,55.6,167.6L55.6,167.6z M90.3,148.4v4.2h-0.8v-0.5c0-1.3-0.2-2.1-0.6-2.5
	c-0.4-0.4-1.5-0.6-3.1-0.6h-5.1l0,8.1H83c0.8,0,1.4,0,1.8-0.1c0.4-0.1,0.6-0.2,0.7-0.5c0.2-0.3,0.3-1.2,0.5-2.6c0-0.1,0-0.2,0-0.2
	h0.8c0,0.9-0.1,1.7-0.1,2.5c0,0.8,0,1.5,0,2.1c0,0.6,0,1.1,0,1.5c0,0.4,0,0.9,0,1.3h-0.8c0,0,0-0.1,0-0.2c-0.1-1.6-0.2-2.5-0.3-2.9
	c-0.1-0.1-0.2-0.3-0.5-0.3c-0.3-0.1-0.8-0.1-1.8-0.1h-2.6l0,7.4c0,0.7,0.1,1.2,0.3,1.4c0.2,0.2,0.6,0.3,1.3,0.3h7.2l1.3-4.4h0.6
	l-0.3,5H80.7c-0.7,0-1.5,0-2.2,0c-0.7,0-1.5,0-2.2,0.1l0-0.7l2-0.1v-17.6l-2-0.1l0-0.7c0.8,0,1.6,0,2.4,0.1c0.8,0,1.6,0,2.3,0H90.3
	L90.3,148.4z M101.3,157.8c0.3,0,0.5,0.1,0.8,0.1c0.2,0,0.5,0,0.7,0c1.7,0,3-0.4,3.8-1.1c0.8-0.8,1.3-1.9,1.3-3.5
	c0-1.4-0.4-2.5-1.3-3.3c-0.9-0.7-2.2-1.1-3.9-1.1c-0.6,0-0.9,0-1.1,0.1c-0.2,0.1-0.3,0.2-0.3,0.4V157.8L101.3,157.8z M96.9,167.6
	l0-0.7l2-0.1v-17.7l-2-0.1v-0.7c0,0,0.1,0,0.2,0c0.9,0,1.6,0.1,2.1,0.1c0.9,0,2,0,3.2-0.1c1.2-0.1,1.9-0.1,2.2-0.1
	c1.8,0,3.2,0.4,4.2,1.3c1,0.9,1.5,2.1,1.5,3.6c0,1.8-0.6,3.2-1.8,4c-1.2,0.9-3.1,1.3-5.7,1.3h-1.5v8.4l2.1,0.1l0,0.7
	c-0.5,0-1.1,0-1.6-0.1c-0.5,0-1.1,0-1.6,0c-0.5,0-1.1,0-1.6,0C98,167.6,97.5,167.6,96.9,167.6L96.9,167.6z M114,157.9
	c0,2.8,0.7,5.1,2,6.9c1.3,1.8,3,2.7,5.1,2.7c0.8,0,1.5-0.1,2.2-0.4c0.7-0.3,1.3-0.6,1.8-1.2c1-0.9,1.7-2.1,2.2-3.5
	c0.5-1.4,0.8-2.9,0.8-4.5c0-2.9-0.6-5.2-1.9-6.9c-1.3-1.7-2.9-2.6-5-2.6c-1,0-1.9,0.2-2.7,0.6c-0.9,0.4-1.6,1-2.3,1.9
	c-0.7,0.9-1.3,1.9-1.6,3.1C114.1,155.1,114,156.5,114,157.9L114,157.9z M121,168c-1.2,0-2.4-0.2-3.5-0.6c-1.1-0.4-2-1-2.8-1.7
	c-1.1-1.1-2-2.2-2.5-3.5c-0.5-1.3-0.8-2.7-0.8-4.2c0-1.4,0.2-2.8,0.7-4c0.5-1.2,1.2-2.3,2.1-3.3c0.9-0.9,1.9-1.6,3.1-2.1
	c1.2-0.5,2.4-0.7,3.7-0.7c2.8,0,5.1,0.9,6.9,2.7c1.7,1.8,2.6,4.1,2.6,7c0,1.2-0.2,2.3-0.5,3.3c-0.3,1.1-0.8,2-1.4,2.9
	c-0.9,1.3-2,2.3-3.3,3.1C124,167.6,122.5,168,121,168L121,168z M136.7,149.7l0,7.8h2.4c0.6,0,1,0,1.3-0.1c0.3-0.1,0.5-0.2,0.7-0.3
	c0.6-0.4,1.1-0.9,1.4-1.6c0.3-0.7,0.5-1.5,0.5-2.3c0-1.5-0.4-2.6-1.3-3.3c-0.9-0.7-2.2-1.1-4-1.1c-0.4,0-0.6,0.1-0.7,0.2
	C136.7,149.1,136.7,149.4,136.7,149.7L136.7,149.7z M132.3,167.6l0-0.7l2-0.1v-17.7l-2-0.1v-0.7c0,0,0.1,0,0.2,0
	c0.9,0,1.6,0.1,2,0.1c0.9,0,2,0,3.1-0.1c1.2-0.1,1.8-0.1,2.1-0.1c1.7,0,3.1,0.4,4.1,1.3c1,0.9,1.5,2,1.5,3.5c0,1.1-0.3,2-0.8,2.8
	c-0.6,0.8-1.4,1.4-2.6,2l4.6,7c0.4,0.6,0.8,1.1,1.2,1.5c0.4,0.4,0.7,0.6,1,0.7v0.5c-0.3,0-0.6,0-1.1,0c-0.4,0-0.7,0-0.8,0
	c-0.5,0-1-0.2-1.5-0.6c-0.4-0.4-1-1.1-1.7-2.2l-4-6.6l-2.8-0.1l0,8.7l2.1,0.1l0,0.7c-0.5,0-1.1,0-1.6-0.1c-0.5,0-1.1,0-1.6,0
	c-0.5,0-1.1,0-1.6,0C133.3,167.6,132.8,167.6,132.3,167.6L132.3,167.6z M154.2,149h-3.6c-1,0-1.7,0.2-2.1,0.6
	c-0.3,0.4-0.6,1.6-0.9,3.5h-0.7l0.3-4.8c0.1,0,0.3,0,0.5,0c0.6,0,1,0.1,1.2,0.1h13.4c0.2,0,0.7,0,1.4-0.1c0.3,0,0.5,0,0.6,0
	l-0.2,4.6h-0.7c0-0.4-0.1-0.9-0.1-1.5c-0.1-1.6-0.6-2.4-1.5-2.4h-5.1v17.8l1.9,0.1v0.7c-0.5,0-1.1,0-1.6-0.1c-0.5,0-1.1,0-1.6,0
	c-0.5,0-1,0-1.6,0c-0.5,0-1.1,0-1.6,0.1v-0.7l2-0.1V149L154.2,149z M167.8,157.9c0,2.8,0.7,5.1,2,6.9c1.3,1.8,3,2.7,5.1,2.7
	c0.8,0,1.5-0.1,2.2-0.4c0.7-0.3,1.3-0.6,1.8-1.2c1-0.9,1.7-2.1,2.2-3.5c0.5-1.4,0.8-2.9,0.8-4.5c0-2.9-0.6-5.2-1.9-6.9
	c-1.3-1.7-2.9-2.6-5-2.6c-1,0-1.9,0.2-2.7,0.6c-0.9,0.4-1.6,1-2.3,1.9c-0.7,0.9-1.3,1.9-1.6,3.1C168,155.1,167.8,156.5,167.8,157.9
	L167.8,157.9z M174.9,168c-1.2,0-2.4-0.2-3.5-0.6c-1.1-0.4-2-1-2.8-1.7c-1.1-1.1-2-2.2-2.5-3.5c-0.5-1.3-0.8-2.7-0.8-4.2
	c0-1.4,0.2-2.8,0.7-4c0.5-1.2,1.2-2.3,2.1-3.3c0.9-0.9,1.9-1.6,3.1-2.1c1.2-0.5,2.4-0.7,3.7-0.7c2.8,0,5.1,0.9,6.9,2.7
	c1.7,1.8,2.6,4.1,2.6,7c0,1.2-0.2,2.3-0.5,3.3c-0.3,1.1-0.8,2-1.4,2.9c-0.9,1.3-2,2.3-3.3,3.1C177.8,167.6,176.4,168,174.9,168
	L174.9,168z M196.7,151.4l-2.7,7.2h5.4L196.7,151.4L196.7,151.4z M188.7,167.6v-0.9l0.8-0.1c0.2,0,0.5-0.1,0.6-0.2
	c0.2-0.1,0.3-0.4,0.4-0.7l6.8-17.9h0.3l7,17.6c0.2,0.5,0.4,0.9,0.6,1c0.2,0.2,0.5,0.2,0.9,0.2h0.1l0,0.9c-0.5,0-1,0-1.5-0.1
	c-0.5,0-1,0-1.6,0c-0.5,0-1,0-1.6,0c-0.5,0-1.1,0-1.7,0.1v-0.8l1.4-0.1c0.4,0,0.6,0,0.7-0.1c0.1,0,0.2-0.1,0.2-0.2c0,0,0,0,0-0.1
	c0,0,0-0.1,0-0.1l-2.6-7h-5.8l-2.4,6.6c-0.1,0.1-0.1,0.3-0.1,0.4c0,0.1,0,0.2,0,0.2c0,0.2,0.2,0.3,0.5,0.3c0,0,0.1,0,0.1,0l1.4,0.1
	l0,0.8c-0.4,0-0.7,0-1.1-0.1c-0.4,0-0.7,0-1.1,0c-0.4,0-0.8,0-1.1,0C189.5,167.6,189.1,167.6,188.7,167.6L188.7,167.6z M211.3,167.6
	c-0.7,0-1.4,0-2.1,0c-0.7,0-1.4,0-2.1,0.1v-0.7l2-0.1v-17.7l-2-0.1v-0.7c0.4,0,0.8,0,1.2,0c0.4,0,1.1,0,2,0c0.9,0,1.5,0,1.9,0
	c0.4,0,0.8,0,1.1,0l0,0.7l-1.8,0.1l0,16.2c0,0.6,0.1,1,0.4,1.2c0.2,0.2,0.6,0.4,1.2,0.4h6.3l1.5-4.6h0.8l-0.5,5.2H211.3L211.3,167.6
	z M236.8,148.4v4.2H236v-0.5c0-1.3-0.2-2.1-0.6-2.5c-0.4-0.4-1.5-0.6-3.1-0.6h-5.1l0,8.1h2.3c0.8,0,1.4,0,1.8-0.1
	c0.4-0.1,0.6-0.2,0.7-0.5c0.2-0.3,0.3-1.2,0.5-2.6c0-0.1,0-0.2,0-0.2h0.8c0,0.9-0.1,1.7-0.1,2.5c0,0.8,0,1.5,0,2.1
	c0,0.6,0,1.1,0,1.5c0,0.4,0,0.9,0,1.3h-0.8c0,0,0-0.1,0-0.2c-0.1-1.6-0.2-2.5-0.3-2.9c-0.1-0.1-0.2-0.3-0.5-0.3
	c-0.3-0.1-0.8-0.1-1.8-0.1h-2.6l0,7.4c0,0.7,0.1,1.2,0.3,1.4c0.2,0.2,0.6,0.3,1.3,0.3h7.2l1.3-4.4h0.6l-0.3,5h-10.3
	c-0.7,0-1.5,0-2.2,0c-0.7,0-1.5,0-2.2,0.1l0-0.7l2-0.1v-17.6l-2-0.1l0-0.7c0.8,0,1.6,0,2.4,0.1c0.8,0,1.6,0,2.3,0H236.8L236.8,148.4
	z M256.8,165.4c-1.3,0.9-2.6,1.5-4,2c-1.3,0.4-2.7,0.7-4,0.7c-1.3,0-2.6-0.2-3.8-0.7c-1.2-0.5-2.2-1.1-3.1-2c-0.9-0.9-1.6-2-2.1-3.2
	c-0.5-1.2-0.7-2.6-0.7-4.1c0-3,0.9-5.4,2.7-7.3c1.8-1.8,4.1-2.8,7-2.8c0.7,0,1.5,0.1,2.3,0.3c0.8,0.2,1.7,0.5,2.7,1
	c0.2,0.1,0.4,0.2,0.6,0.3c0.4,0.2,0.6,0.3,0.7,0.3c0.1,0,0.3,0,0.3-0.1c0.1-0.1,0.1-0.2,0.1-0.4h0.6v5.4h-0.4
	c-0.6-2-1.5-3.4-2.7-4.5c-1.2-1-2.6-1.6-4.3-1.6c-2.1,0-3.9,0.8-5.2,2.5c-1.4,1.7-2,3.9-2,6.6c0,1.4,0.2,2.6,0.5,3.7
	c0.3,1.1,0.8,2.1,1.5,2.9c0.7,1,1.6,1.7,2.7,2.2c1,0.5,2.1,0.8,3.3,0.8c0.9,0,1.7-0.2,2.6-0.5c0.8-0.3,1.6-0.8,2.3-1.5
	c0-0.2,0-0.5,0-0.8c0-0.3,0-0.7,0-1.2c0-0.4,0-0.8,0-1c0-0.2,0-0.4,0-0.6l-2.5-0.1v-0.7c0.4,0,0.8,0,1.2,0c0.4,0,1.1,0,2,0
	c0.9,0,1.6,0,2,0c0.4,0,0.9,0,1.2,0v0.7l-0.9,0.1c-0.3,0-0.5,0.1-0.6,0.1c-0.1,0.1-0.1,0.2-0.1,0.4v0.4V165.4L256.8,165.4z
	 M263.8,149.7l0,7.8h2.4c0.6,0,1,0,1.3-0.1c0.3-0.1,0.5-0.2,0.7-0.3c0.6-0.4,1.1-0.9,1.4-1.6c0.3-0.7,0.5-1.5,0.5-2.3
	c0-1.5-0.4-2.6-1.3-3.3c-0.9-0.7-2.2-1.1-4-1.1c-0.4,0-0.6,0.1-0.7,0.2C263.9,149.1,263.8,149.4,263.8,149.7L263.8,149.7z
	 M259.4,167.6l0-0.7l2-0.1v-17.7l-2-0.1v-0.7c0,0,0.1,0,0.2,0c0.9,0,1.6,0.1,2,0.1c0.9,0,2,0,3.1-0.1c1.2-0.1,1.8-0.1,2.1-0.1
	c1.7,0,3.1,0.4,4.1,1.3c1,0.9,1.5,2,1.5,3.5c0,1.1-0.3,2-0.8,2.8c-0.6,0.8-1.4,1.4-2.6,2l4.6,7c0.4,0.6,0.8,1.1,1.2,1.5
	c0.4,0.4,0.7,0.6,1,0.7v0.5c-0.3,0-0.6,0-1,0c-0.4,0-0.7,0-0.8,0c-0.5,0-1-0.2-1.5-0.6c-0.4-0.4-1-1.1-1.7-2.2l-4-6.6l-2.8-0.1
	l0,8.7l2.1,0.1l0,0.7c-0.5,0-1.1,0-1.6-0.1c-0.5,0-1.1,0-1.6,0c-0.5,0-1.1,0-1.6,0C260.5,167.6,259.9,167.6,259.4,167.6L259.4,167.6
	z M290.5,148.4v4.2h-0.8v-0.5c0-1.3-0.2-2.1-0.6-2.5c-0.4-0.4-1.5-0.6-3.1-0.6h-5.1l0,8.1h2.3c0.8,0,1.4,0,1.8-0.1
	c0.4-0.1,0.6-0.2,0.7-0.5c0.2-0.3,0.3-1.2,0.5-2.6c0-0.1,0-0.2,0-0.2h0.8c-0.1,0.9-0.1,1.7-0.1,2.5c0,0.8,0,1.5,0,2.1
	c0,0.6,0,1.1,0,1.5c0,0.4,0,0.9,0,1.3h-0.8c0,0,0-0.1,0-0.2c-0.1-1.6-0.2-2.5-0.3-2.9c-0.1-0.1-0.2-0.3-0.5-0.3
	c-0.3-0.1-0.8-0.1-1.8-0.1h-2.6l0,7.4c0,0.7,0.1,1.2,0.3,1.4c0.2,0.2,0.6,0.3,1.3,0.3h7.2l1.3-4.4h0.6l-0.3,5h-10.3
	c-0.7,0-1.5,0-2.2,0c-0.7,0-1.5,0-2.2,0.1l0-0.7l2-0.1v-17.6l-2-0.1l0-0.7c0.8,0,1.6,0,2.4,0.1c0.8,0,1.6,0,2.3,0H290.5L290.5,148.4
	z"/>
<path class="st0" d="M372.4,73.2c38.5,2.3,5.6,46.7-6.8,28.1C354.1,103.1,358,78.6,372.4,73.2L372.4,73.2z M371.3,79.1
	c22.7-0.1-0.2,36.2-5,9.4C367.9,84.9,368.1,81.7,371.3,79.1L371.3,79.1z"/>
<path class="st0" d="M393.2,167.9v-0.4l1.2-0.1v-9l-1.2-0.1v-0.4c0.3,0,0.7,0,1.2,0c1,0,1.6,0,1.9,0h5c0,0.1,0,0.3,0,0.5
	c0,0.2,0,0.4,0,0.7c0,0.3,0,0.6,0,0.7c0,0.2,0,0.3,0,0.5h-0.7c0-0.9-0.2-1.4-0.4-1.7c-0.2-0.3-0.8-0.4-1.6-0.4h-2.3l0,4.4h0.8
	c0.6,0,1-0.1,1.2-0.3c0.2-0.2,0.3-0.7,0.3-1.5l0.6,0c0,0.1,0,0.3,0,0.6c0,0.6,0,1,0,1.3c0,0.3,0,0.9,0,1.7c0,0.1,0,0.3,0,0.3h-0.6
	c0-0.1,0-0.3,0-0.5c0-0.8-0.3-1.2-0.8-1.2h-1.5l0,4.4l1.4,0.1l0,0.4c-0.4,0-0.9,0-1.3,0c-0.4,0-0.8,0-1.1,0c-0.2,0-0.5,0-0.8,0
	C394.1,167.9,393.7,167.9,393.2,167.9L393.2,167.9z M403,158.4l-1.1-0.1v-0.4c0.1,0,0.2,0,0.4,0c0.8,0,1.4,0,1.7,0
	c0.3,0,0.9,0,1.8,0c0.2,0,0.3,0,0.4,0v0.4l-1.2,0.1v5.7c0,1.2,0.2,2.1,0.6,2.7c0.4,0.6,1,0.9,1.8,0.9c0.9,0,1.6-0.3,2.1-1
	c0.5-0.7,0.7-1.6,0.7-2.9l0-5.3l-1.2-0.1v-0.4c0.3,0,0.6,0,0.9,0c0.3,0,0.5,0,0.6,0c0.2,0,0.6,0,1.2,0c0.2,0,0.3,0,0.4,0v0.4
	l-1.2,0.1l-0.1,3.7v0c-0.1,2-0.2,3.3-0.6,4c-0.3,0.6-0.8,1.1-1.3,1.4c-0.6,0.3-1.2,0.5-2,0.5c-1.2,0-2.1-0.4-2.8-1.1
	c-0.7-0.7-1-1.7-1-3L403,158.4L403,158.4z M414.9,157.9l6.3,7.6v-7l-1.3-0.1v-0.4c0,0,0.1,0,0.1,0c0.6,0,1.1,0,1.3,0
	c0.2,0,0.6,0,1.1,0c0.1,0,0.2,0,0.3,0v0.4l-1.1,0.1c0,0.6-0.1,1.8-0.1,3.5c0,0.4,0,0.7,0,0.9l0,5.2h-0.3l-7.1-8.3l0.1,7.7l1.2,0.1
	v0.4c-0.3,0-0.5,0-0.8,0c-0.2,0-0.5,0-0.7,0c-0.2,0-0.4,0-0.7,0c-0.2,0-0.5,0-0.8,0l0-0.4l1.2-0.1c0-0.4,0-0.9,0-1.5
	c0-0.6,0-1.5,0-2.8v-3.8l-0.3-0.4c0,0,0,0,0,0c-0.3-0.4-0.6-0.5-0.9-0.6v-0.4H414.9L414.9,157.9z M432.1,162.9
	c0-1.4-0.4-2.5-1.2-3.4c-0.8-0.8-1.9-1.3-3.3-1.3c-0.4,0-0.6,0-0.7,0.1c-0.1,0-0.2,0.1-0.3,0.3c0,0.1-0.1,0.5-0.1,1.1
	c0,0.6,0,1.7,0,3v1.2c0,1.2,0,1.9,0,2.4c0,0.4,0,0.7,0.1,0.8c0.1,0.2,0.2,0.3,0.4,0.4c0.2,0.1,0.6,0.1,1.1,0.1c1.3,0,2.2-0.4,3-1.3
	C431.8,165.5,432.1,164.4,432.1,162.9L432.1,162.9z M423.5,167.9l0-0.4l1.2-0.1v-9l-1.2-0.1v-0.4c0.4,0,0.8,0,1.2,0
	c0.4,0,0.8,0,1.3,0c0.4,0,0.9,0,1.4,0c0.5,0,0.8,0,0.9,0c0.8,0,1.6,0.1,2.2,0.3c0.6,0.2,1.1,0.5,1.6,0.8c0.6,0.5,1.1,1,1.4,1.7
	c0.3,0.7,0.5,1.4,0.5,2.2c0,1.6-0.5,2.8-1.5,3.7c-1,0.9-2.4,1.3-4.3,1.3c-0.2,0-0.4,0-0.9,0c-0.4,0-0.8,0-1,0c-0.4,0-0.8,0-1.3,0
	C424.5,167.9,424,167.9,423.5,167.9L423.5,167.9z M437.7,160.1l-1.3,3.6h2.7L437.7,160.1L437.7,160.1z M438.3,157.7h0.2l3.6,9
	c0.1,0.3,0.3,0.6,0.4,0.6c0.1,0.1,0.3,0.1,0.5,0.1v0.4c-0.3,0-0.6,0-0.9,0c-0.3,0-0.7,0-1.2,0c-0.4,0-0.8,0-1.1,0
	c-0.3,0-0.6,0-0.9,0v-0.4l0.8,0c0,0,0,0,0,0c0.4,0,0.5-0.1,0.5-0.2c0,0,0-0.1,0-0.1c0,0,0-0.1-0.1-0.2l-1.1-2.8h-2.9l-1,2.8
	c0,0.1-0.1,0.1-0.1,0.2c0,0.1,0,0.1,0,0.1c0,0,0,0.1,0.1,0.1c0.1,0,0.1,0,0.2,0.1l0.9,0.1v0.5c-0.3,0-0.5,0-0.7,0
	c-0.2,0-0.4,0-0.6,0c-0.2,0-0.5,0-0.9,0c-0.1,0-0.2,0-0.2,0v-0.4h0.1c0.4,0,0.8-0.6,1.3-1.9c0.1-0.3,0.2-0.5,0.2-0.6L438.3,157.7
	L438.3,157.7z M452.3,162.9c0-1.4-0.4-2.5-1.2-3.4c-0.8-0.8-1.9-1.3-3.3-1.3c-0.4,0-0.6,0-0.7,0.1c-0.1,0-0.2,0.1-0.3,0.3
	c0,0.1-0.1,0.5-0.1,1.1c0,0.6,0,1.7,0,3v1.2c0,1.2,0,1.9,0,2.4c0,0.4,0.1,0.7,0.1,0.8c0.1,0.2,0.2,0.3,0.4,0.4
	c0.2,0.1,0.6,0.1,1.1,0.1c1.3,0,2.2-0.4,3-1.3C451.9,165.5,452.3,164.4,452.3,162.9L452.3,162.9z M443.6,167.9l0-0.4l1.2-0.1v-9
	l-1.2-0.1v-0.4c0.4,0,0.8,0,1.2,0c0.4,0,0.8,0,1.3,0c0.4,0,0.9,0,1.4,0c0.5,0,0.8,0,0.9,0c0.8,0,1.6,0.1,2.2,0.3
	c0.6,0.2,1.1,0.5,1.6,0.8c0.6,0.5,1.1,1,1.4,1.7c0.3,0.7,0.5,1.4,0.5,2.2c0,1.6-0.5,2.8-1.5,3.7c-1,0.9-2.4,1.3-4.3,1.3
	c-0.2,0-0.4,0-0.9,0c-0.4,0-0.8,0-1,0c-0.4,0-0.8,0-1.3,0C444.6,167.9,444.1,167.9,443.6,167.9L443.6,167.9z M457.9,160.1l-1.3,3.6
	h2.7L457.9,160.1L457.9,160.1z M458.4,157.7h0.2l3.6,9c0.1,0.3,0.3,0.6,0.4,0.6c0.1,0.1,0.3,0.1,0.5,0.1v0.4c-0.3,0-0.6,0-0.9,0
	c-0.3,0-0.7,0-1.2,0c-0.4,0-0.8,0-1.1,0c-0.3,0-0.6,0-0.9,0v-0.4l0.8,0c0,0,0,0,0,0c0.4,0,0.5-0.1,0.5-0.2c0,0,0-0.1,0-0.1
	c0,0,0-0.1-0.1-0.2l-1.1-2.8h-2.9l-1,2.8c0,0.1-0.1,0.1-0.1,0.2c0,0.1,0,0.1,0,0.1c0,0,0,0.1,0.1,0.1c0.1,0,0.1,0,0.2,0.1l0.9,0.1
	v0.5c-0.3,0-0.5,0-0.7,0c-0.2,0-0.4,0-0.6,0c-0.2,0-0.5,0-0.9,0c-0.1,0-0.2,0-0.2,0v-0.4h0.1c0.4,0,0.8-0.6,1.3-1.9
	c0.1-0.3,0.2-0.5,0.2-0.6L458.4,157.7L458.4,157.7z M467.5,167.9v-0.4l1.2-0.1v-9l-1.2-0.1v-0.4c0.3,0,0.7,0,1.2,0c1,0,1.6,0,1.9,0
	h5v2.2l-0.7,0c0-0.8-0.1-1.4-0.3-1.6c-0.2-0.2-0.7-0.3-1.5-0.3h-2.6l0,4.3h0.9c0.7,0,1.1-0.1,1.2-0.3c0.2-0.2,0.3-0.7,0.3-1.5l0.6,0
	c0,0.1,0,0.3,0,0.6c0,0.6,0,1,0,1.3c0,0.3,0,0.9,0,1.7c0,0.1,0,0.3,0,0.3h-0.6c0-0.1,0-0.3,0-0.6c0-0.8-0.3-1.2-0.8-1.2h-1.6l0,3.5
	c0,0.5,0.1,0.8,0.2,1c0.1,0.2,0.4,0.2,0.7,0.2h3.4l0.6-2.4h0.6l-0.2,2.7l-4.8,0h-1.4c-0.4,0-0.7,0-1.1,0
	C468.2,167.9,467.8,167.9,467.5,167.9L467.5,167.9z M478.6,167.4h1.3v0.5c-0.3,0-0.5,0-0.7,0c-0.2,0-0.5,0-0.7,0c-0.2,0-0.4,0-0.6,0
	c-0.2,0-0.5,0-0.8,0l0-0.4l1.2-0.1l0.1-9l-1.3-0.1v-0.4c0.1,0,0.2,0,0.4,0c0.6,0,0.9,0,1.1,0c0.2,0,0.4,0,0.6,0c0.2,0,0.5,0,0.9,0
	l3.6,7.8l3.2-7.8c0.1,0,0.2,0,0.3,0c0.6,0,0.9,0,1.2,0c0.2,0,0.6,0,1.2,0c0.1,0,0.2,0,0.3,0v0.4l-1.2,0.1l0.1,9l1.2,0.1v0.4
	c-0.4,0-0.8,0-1.2,0c-0.4,0-0.8,0-1.2,0c-0.1,0-0.3,0-0.5,0c-0.3,0-0.7,0-1.2,0l0-0.4l1.2-0.1l0-8.9l-3.9,9.5h-0.2l-4.3-9.3
	L478.6,167.4L478.6,167.4z"/>
<path class="st0" d="M495.6,167.9v-0.4l1.4-0.1v-8.9h-1.3V158l2.7-0.2v9.6l1.2,0.1v0.4H495.6L495.6,167.9z M506.1,163.4
	c0.1-0.3,0.1-0.6,0.2-1c0-0.3,0.1-0.7,0.1-1c0-1.1-0.1-1.9-0.4-2.5c-0.3-0.6-0.7-0.8-1.3-0.8c-0.4,0-0.8,0.2-1.1,0.7
	c-0.3,0.5-0.4,1.1-0.4,1.9c0,0.9,0.2,1.6,0.5,2.1c0.4,0.5,0.8,0.8,1.4,0.8c0.1,0,0.3,0,0.4-0.1C505.6,163.6,505.8,163.5,506.1,163.4
	L506.1,163.4z M506,163.8c-0.3,0.1-0.6,0.2-0.8,0.2c-0.3,0.1-0.5,0.1-0.8,0.1c-0.9,0-1.5-0.3-2.1-0.9c-0.5-0.6-0.8-1.3-0.8-2.2
	c0-0.9,0.3-1.6,0.9-2.3c0.6-0.6,1.3-0.9,2.1-0.9c1,0,1.8,0.4,2.4,1.1c0.6,0.7,0.9,1.6,0.9,2.8c0,1.3-0.4,2.6-1.1,3.7
	c-0.8,1.1-1.8,2-3.2,2.7l-0.1-0.2c0.6-0.5,1.2-1.1,1.6-1.8C505.4,165.4,505.7,164.6,506,163.8L506,163.8z M510.6,162.8
	c0,0.2-0.1,0.5-0.1,0.7c0,0.3,0,0.5,0,0.8c0,1.1,0.1,2,0.4,2.6c0.3,0.6,0.7,0.9,1.2,0.9c0.5,0,0.9-0.3,1.1-0.8
	c0.3-0.5,0.4-1.2,0.4-2.1c0-0.8-0.2-1.5-0.5-2c-0.3-0.5-0.7-0.7-1.3-0.7c-0.2,0-0.4,0-0.7,0.1C511,162.5,510.8,162.6,510.6,162.8
	L510.6,162.8z M510.6,162.4c0.3-0.2,0.6-0.3,0.9-0.4c0.3-0.1,0.7-0.1,1-0.1c0.8,0,1.4,0.3,1.9,0.8c0.5,0.6,0.7,1.3,0.7,2.2
	c0,0.9-0.3,1.7-0.9,2.4c-0.6,0.6-1.3,0.9-2.2,0.9c-1,0-1.7-0.4-2.3-1.1c-0.6-0.8-0.9-1.8-0.9-3c0-1.7,0.5-3.2,1.6-4.3
	c1-1.1,2.5-1.7,4.3-1.9v0.2c-1.2,0.3-2.1,0.8-2.8,1.5C511.3,160.2,510.8,161.2,510.6,162.4L510.6,162.4z M516.6,168.1v-0.3
	c1.1-0.3,1.9-0.6,2.5-1.1c0.6-0.5,0.9-1.1,0.9-1.7c0-0.6-0.3-1-0.7-1.4c-0.5-0.3-1.2-0.6-2.2-0.7v-0.3c0.9-0.3,1.5-0.7,2-1.1
	c0.5-0.4,0.7-0.8,0.7-1.3c0-0.3-0.1-0.6-0.3-0.8c-0.2-0.2-0.5-0.3-0.9-0.3c-0.3,0-0.6,0.1-0.9,0.2s-0.7,0.3-1.1,0.6l0.2-1.7
	c0.3-0.1,0.7-0.3,1-0.3c0.3-0.1,0.6-0.1,0.9-0.1c0.7,0,1.3,0.2,1.7,0.5c0.4,0.3,0.6,0.8,0.6,1.3c0,0.5-0.2,0.9-0.5,1.3
	c-0.3,0.4-0.8,0.8-1.5,1.1c0.8,0.2,1.4,0.6,1.8,1c0.4,0.4,0.6,1,0.6,1.6c0,0.9-0.4,1.6-1.3,2.2C519.3,167.5,518.1,167.9,516.6,168.1
	L516.6,168.1z"/>
<path class="st1" d="M334.2,181.3c0.2-0.9,0.3-1.8,0.6-2.7c1.8-5,4.6-9.4,7.8-13.5c3.9-5,8.1-9.9,12.1-14.8
	c6.1-7.3,12.8-14.1,20.5-19.8c2.6-1.9,5.2-3.8,7.9-5.5c2.8-1.7,5.8-3.2,8.7-4.8c5.7-3.2,11.9-5.4,18-7.5c1.8-0.6,3.7-1.1,5.5-1.6
	c2.9-0.7,5.8-1.5,8.8-2c2.4-0.5,4.8-0.7,7.2-0.9c2.8-0.3,5.6-0.7,8.4-0.9c1.2-0.1,2.5,0.1,3.7,0c5-0.4,9.9-0.8,14.9-1.2
	c1.3-0.1,2.6-0.1,3.8-0.1c0.6,0,1.1,0.2,1.2,0.9c0.5,2.8,0.6,5.6-0.7,8.4c-0.7,1.6-1.9,2.5-3.5,2.3c-1.9-0.1-3.9-0.2-5.6-0.9
	c-4.5-1.9-9.1-1.3-13.7-0.7c-7.9,1-15.3,3.7-22.7,6.5c-7.9,3-15.4,6.7-22.6,11.1c-5.8,3.6-11.4,7.5-16.7,11.6
	c-6.1,4.7-12,9.7-17.7,15c-5.8,5.3-11.1,10.9-16.8,16.3c-1,1-2.4,1.7-3.7,2.5c-0.1,0.1-0.4,0.1-0.5,0.1c-1.2-0.3-1.9,0.4-2.8,1
	c-0.7,0.5-1.4,0.9-2.1,1.3C334.5,181.5,334.3,181.4,334.2,181.3z M394.5,123.1c0-0.1-0.1-0.2-0.1-0.3c-7,3-13.4,6.9-19.5,11.2
	c0.1,0.1,0.2,0.3,0.2,0.4C381.6,130.7,388.1,126.9,394.5,123.1z"/>
<path class="st1" d="M322.9,71.7c1.7-0.6,3.4-1.2,5.1-1.9c3.8-1.6,7.7-3,11.4-4.8c4.7-2.3,9.4-4.8,14-7.3c2.2-1.2,4.3-2.8,6.4-4.3
	c2.7-1.9,5.5-3.6,8-5.7c3.3-2.8,6.4-5.8,9.4-8.8c3.9-4,7.4-8.3,10.2-13.1c0.2-0.4,0.4-0.8,0.4-1.3c-0.2,0.2-0.4,0.3-0.6,0.5
	c-7,8.2-14.9,15.3-23.5,21.7c-7,5.3-14.3,10.1-22,14.4c-6.9,4-14,7.6-21.6,10.2c-6,2-12,4-18.3,4.5c-2.3,0.2-4.7,0.3-7,0.3
	c-0.8,0-1.6-0.7-2.5-1.1c-0.8-0.3-1.5-0.8-2.3-1c-0.8-0.2-1.4-0.5-1.5-1.6c1.4-0.6,2.8-1.4,4.3-1.9c4.6-1.6,9.3-3,13.8-4.7
	c7.4-2.8,14.7-5.7,21.9-8.7c5.6-2.3,11.3-4.5,16.5-7.7c11.1-6.6,21.8-13.8,31.4-22.5c5-4.6,9.5-9.5,13.3-15.1
	c0.9-1.3,0.9-1.3,2.4-0.7c1.6,0.6,3.2,1.3,4.9,1.9c0.6,0.2,1,0.7,0.7,1.3c-0.9,2-0.7,4.4-2,6.3c-2.9,4.2-5.7,8.3-8.5,12.6
	c-2.9,4.5-6.8,8-10.8,11.5c-8.2,7.1-17.3,12.9-27,17.7c-7.1,3.4-14.3,6.4-21.9,8.5c-1.3,0.4-2.7,0.8-4,1.1c-0.2,0.1-0.5,0.1-0.7,0.1
	C323,71.8,322.9,71.8,322.9,71.7z"/>
<path class="st1" d="M403.3,38.1c-2.9,16.6-2.1,32.6,6.3,47.8c-0.7-1-1.4-2-2-3c-4-6.7-6.3-14-7.4-21.7c-0.5-3.4-0.7-6.8-0.8-10.2
	c-0.2-7.8,1.1-15.4,2.6-23c0.5-2.4,1.4-4.8,2.2-7.2c0.1-0.3,0.7-0.7,1-0.7c1.5,0.2,2.9,0.5,4.3,1c1.1,0.4,0.9,1.4,0.8,2.3
	c-0.2,1.7-0.5,3.5-0.6,5.2c-0.1,5.2-0.3,10.3-0.2,15.5c0.2,6.4,1.2,12.7,2.6,18.9c1.5,6.5,4.7,12.4,7.7,18.4c2.1,4.2,4.9,8,8.2,11.4
	c0.8,0.8,1.5,1.7,2.2,2.6c0.2,0.2,0.3,0.7,0.2,0.8c-0.2,0.2-0.5,0.4-0.9,0.5c-0.8,0.2-1.6,0.4-2.5,0.4c-0.9,0-1.9,0-2.7-0.4
	c-4.9-2.6-8.6-6.6-11.6-11.3c-4.2-6.7-6.2-14.2-7.7-21.9c-1.4-7.5-1.7-15.1-1.6-22.7c0-0.9,0-1.8,0-2.8
	C403.6,38.1,403.5,38.1,403.3,38.1z"/>
<a xlink:href="https://www.folha.uol.com.br/" >
	<rect y="10.6" class="st2" width="526.9" height="171"/>
</a>
</svg>
