<?xml version="1.0" encoding="UTF-8"?>
<svg id="Layer_1" xmlns="http://www.w3.org/2000/svg" version="1.1" viewBox="0 0 215.7 82.2">
  <!-- Generator: Adobe Illustrator 29.1.0, SVG Export Plug-In . SVG Version: 2.1.0 Build 142)  -->
  <defs>
    <style>
      .st0 {
        fill: #fff;
      }
    </style>
  </defs>
  <path class="st0" d="M65.5,46.8l4.2-6.2c2,1.4,4.1,2.6,6.3,3.6s4.4,1.5,6.8,1.5,2.4-.2,3.3-.5c1-.3,1.8-.7,2.4-1.2s1.2-1.1,1.5-1.7.5-1.3.5-1.9-.2-1.5-.8-2.1c-.5-.6-1.2-1-2-1.4-.8-.4-1.8-.7-2.9-.9s-2.3-.5-3.5-.7c-.8-.2-1.8-.3-2.8-.5-1.1-.2-2.2-.5-3.3-.8-1.2-.3-2.3-.8-3.4-1.4-1.1-.6-2.1-1.3-3-2.2-.9-.9-1.6-1.9-2.1-3.1s-.8-2.6-.8-4.2c0-2.4.5-4.3,1.4-5.9,1-1.6,2.2-2.8,3.7-3.7,1.5-.9,3.2-1.6,5-1.9s3.6-.6,5.3-.6,3.2.1,4.6.3c1.3.2,2.6.6,3.7,1,1.2.4,2.3,1,3.4,1.6,1.1.6,2.3,1.4,3.5,2.3l-4.3,6.1c-1.9-1.3-3.8-2.4-5.6-3.1-1.8-.7-3.7-1.1-5.6-1.1s-1.4,0-2.3.2-1.7.4-2.4.8c-.8.4-1.4.8-1.9,1.4-.5.6-.8,1.3-.8,2.1s.3,1.5.9,2.1,1.3,1,2.3,1.4c.9.4,1.9.7,3.1.9,1.1.3,2.2.5,3.2.8.8.2,1.7.4,2.8.6,1.1.2,2.2.4,3.3.8,1.1.3,2.2.8,3.4,1.3,1.1.6,2.1,1.3,3,2.1.9.9,1.6,1.9,2.1,3.2.5,1.3.8,2.8.8,4.6s-.4,4-1.1,5.5c-.7,1.6-1.8,2.8-3.2,3.9-1.4,1-3,1.8-4.9,2.3s-4,.8-6.3.8-4-.2-5.6-.5c-1.6-.3-3.1-.7-4.4-1.3-1.3-.5-2.6-1.2-3.8-1.9-1.2-.8-2.4-1.6-3.7-2.5"/>
  <path class="st0" d="M123,11.5c2,0,3.9.4,5.6,1.1,1.8.8,3.3,1.8,4.6,3.1,1.3,1.3,2.3,2.8,3.1,4.6.8,1.8,1.1,3.6,1.1,5.6s-.3,3.9-1,5.6c-.7,1.7-1.6,3.2-2.9,4.5s-2.9,2.3-4.9,3c-2,.7-4.3,1.1-6.9,1.1h-9.1v12.1h-7.8V11.5h18.1ZM123,33.1c1.2,0,2.2-.2,3-.6.8-.4,1.6-.9,2.1-1.6.5-.7.9-1.4,1.2-2.3s.4-1.7.4-2.7-.2-1.8-.5-2.8-.8-1.7-1.4-2.4-1.4-1.3-2.3-1.7c-.9-.4-2-.7-3.2-.7h-9.5v14.7s10.3,0,10.3,0Z"/>
  <path class="st0" d="M160.7,11.5c2,0,3.9.4,5.6,1.1s3.3,1.8,4.6,3.1c1.3,1.3,2.3,2.8,3.1,4.6.8,1.8,1.1,3.6,1.1,5.6s-.3,3.9-1,5.6c-.7,1.7-1.6,3.2-2.9,4.5-1.3,1.3-2.9,2.3-4.9,3s-4.3,1.1-6.9,1.1h-9.1v12.1h-7.8V11.5h18.1ZM160.7,33.1c1.1,0,2.1-.2,3-.6.9-.4,1.6-.9,2.1-1.6.5-.7.9-1.4,1.2-2.3.3-.9.4-1.7.4-2.7s-.2-1.8-.5-2.8-.8-1.7-1.4-2.4c-.6-.7-1.4-1.3-2.3-1.7-.9-.4-2-.7-3.2-.7h-9.5v14.7s10.3,0,10.3,0Z"/>
  <path class="st0" d="M170.4,52.2l20.8-40.6h.8l20.8,40.6h-8.4l-3.2-6.4h-19.2l-3.1,6.4h-8.5ZM185.7,39h11.6l-5.8-12.3-5.8,12.3Z"/>
  <path class="st0" d="M109.6,63.8l-.9.3c0-.3-.2-.6-.4-.8-.2-.2-.6-.4-1-.4s-.7.1-1,.3c-.3.2-.4.5-.4.8s0,.5.2.7c.2.2.4.3.7.4l1.1.2c.6.1,1,.4,1.3.7s.5.8.5,1.3-.2,1.1-.7,1.5-1,.6-1.8.6-1.4-.2-1.8-.6-.7-.9-.8-1.5l.9-.3c0,.4.2.8.5,1.1s.7.4,1.2.4.8,0,1.1-.3c.2-.2.4-.5.4-.8s0-.5-.3-.7c-.2-.2-.4-.3-.8-.4l-1-.2c-.5-.1-.9-.3-1.2-.7-.3-.3-.5-.8-.5-1.3s.2-1,.7-1.5,1-.6,1.6-.6,1.3.2,1.7.5c.4.3.6.7.7,1.2"/>
  <path class="st0" d="M111.3,65c.5-.5,1-.7,1.8-.7s1.3.2,1.8.7.7,1.1.7,1.8-.2,1.3-.7,1.8c-.5.5-1,.7-1.8.7s-1.3-.2-1.8-.7-.7-1.1-.7-1.8c0-.7.2-1.3.7-1.8M112,68.1c.3.3.6.4,1.1.4s.8-.2,1.1-.4c.3-.3.4-.7.4-1.3s-.1-.9-.4-1.2c-.3-.3-.6-.4-1.1-.4s-.8.2-1.1.4-.4.7-.4,1.2c0,.5.1,1,.4,1.3"/>
  <path class="st0" d="M118.9,65.2c-.4,0-.8.2-1,.4s-.4.7-.4,1.2.1.9.4,1.2.6.4,1,.4.7,0,.9-.3c.2-.2.3-.4.4-.7l.8.4c-.1.4-.4.7-.8,1s-.8.4-1.4.4-1.3-.2-1.7-.7c-.5-.5-.7-1.1-.7-1.8s.2-1.3.7-1.8c.5-.5,1-.7,1.7-.7s1.1.2,1.4.4c.4.3.6.7.7,1.1l-.8.4c0-.3-.2-.5-.4-.7-.2-.2-.5-.3-.9-.3"/>
  <path class="st0" d="M122.3,63.1c-.1-.1-.2-.3-.2-.5s0-.3.2-.5c.1-.1.3-.2.5-.2s.3,0,.5.2c.1.1.2.3.2.5s0,.3-.2.5-.3.2-.5.2c-.2,0-.3,0-.5-.2M123.2,69.2h-.9v-4.8h.9v4.8Z"/>
  <path class="st0" d="M128.4,67.6l.8.3c-.1.4-.4.8-.8,1.1-.4.3-.8.4-1.4.4s-1.2-.2-1.7-.7c-.5-.5-.7-1.1-.7-1.9s.2-1.3.7-1.8c.4-.5,1-.7,1.6-.7s1.3.2,1.7.7c.4.4.6,1.1.6,1.8s0,.2,0,.3h-3.6c0,.4.2.8.4,1,.3.3.6.4,1,.4.7,0,1.1-.3,1.3-1M125.6,66.3h2.6c0-.4-.1-.7-.4-.9s-.5-.3-.9-.3-.7.1-.9.4c-.2.2-.4.5-.4.9"/>
  <path class="st0" d="M133.9,68.6h0c-.1.2-.3.4-.6.5-.3.2-.6.2-.9.2-.7,0-1.2-.2-1.6-.7s-.6-1.1-.6-1.8.2-1.3.6-1.8,1-.7,1.6-.7.7,0,.9.2c.2.2.4.3.5.6v-3.1h.9v6.3c0,.3,0,.6,0,.9h-.9c0-.2,0-.4,0-.6M131.1,66.8c0,.5.1.9.4,1.2s.6.5,1,.5.8-.2,1-.5c.2-.3.4-.7.4-1.2s-.1-.9-.4-1.2c-.2-.3-.6-.5-1-.5s-.8.2-1,.5c-.3.3-.4.7-.4,1.2"/>
  <path class="st0" d="M136.3,67.9c0-.4.1-.7.4-1,.3-.2.6-.4,1.1-.5l1.3-.2c.2,0,.4-.2.4-.4s0-.5-.3-.6c-.2-.2-.4-.2-.8-.2s-.6,0-.8.3-.3.4-.3.7l-.9-.2c0-.5.2-.8.6-1.1s.8-.4,1.3-.4,1.2.2,1.5.5c.3.3.5.8.5,1.3v2.4c0,.3,0,.5,0,.8h-.9c0-.2,0-.4,0-.7-.1.2-.3.4-.6.6-.2.2-.6.2-1,.2s-.9-.1-1.1-.4c-.3-.3-.5-.6-.5-1M138.1,68.6c.4,0,.8-.1,1-.3.2-.2.4-.6.4-1.1v-.2l-1.5.2c-.2,0-.4.1-.5.2-.1.1-.2.3-.2.5s0,.3.2.5c.2.1.3.2.6.2"/>
  <path class="st0" d="M145.4,68.6h0c-.1.2-.3.4-.6.5-.3.2-.6.2-.9.2-.7,0-1.2-.2-1.6-.7s-.6-1.1-.6-1.8.2-1.3.6-1.8,1-.7,1.6-.7.7,0,.9.2c.2.2.4.3.5.6v-3.1h.9v6.3c0,.3,0,.6,0,.9h-.9c0-.2,0-.4,0-.6M142.6,66.8c0,.5.1.9.4,1.2s.6.5,1,.5.8-.2,1-.5c.2-.3.4-.7.4-1.2s-.1-.9-.4-1.2c-.2-.3-.6-.5-1-.5s-.8.2-1,.5c-.3.3-.4.7-.4,1.2"/>
  <path class="st0" d="M151.4,67.6l.8.3c-.1.4-.4.8-.8,1.1-.4.3-.8.4-1.4.4s-1.2-.2-1.7-.7c-.5-.5-.7-1.1-.7-1.9s.2-1.3.7-1.8c.4-.5,1-.7,1.6-.7s1.3.2,1.7.7c.4.4.6,1.1.6,1.8s0,.2,0,.3h-3.6c0,.4.1.8.4,1,.3.3.6.4,1,.4.7,0,1.1-.3,1.3-1M148.6,66.3h2.6c0-.4-.1-.7-.4-.9s-.5-.3-.9-.3-.7.1-.9.4c-.2.2-.4.5-.4.9"/>
  <path class="st0" d="M159,66.3h-1.6v2.9h-1v-7h2.6c.6,0,1.2.2,1.6.6.4.4.6.9.6,1.5s-.2,1.1-.6,1.5c-.4.4-.9.6-1.6.6M157.4,65.5h1.4c.4,0,.8-.1,1-.3.2-.2.4-.5.4-.9s-.1-.7-.4-.9c-.2-.2-.6-.3-1-.3h-1.4v2.4Z"/>
  <path class="st0" d="M161.7,68l.8-.3c0,.3.1.5.3.6s.4.2.8.2.4,0,.6-.2c.1-.1.2-.3.2-.4,0-.3-.2-.5-.6-.6l-.8-.2c-.4,0-.7-.2-.9-.5-.2-.2-.3-.5-.3-.9s.2-.8.5-1.1c.3-.3.7-.4,1.2-.4s.6,0,.8.1c.2,0,.4.2.6.3.1.2.2.3.3.4,0,.1.1.2.1.4l-.8.3c0,0,0-.2,0-.2,0,0,0-.2-.1-.2,0,0-.2-.2-.3-.2-.1,0-.3,0-.5,0s-.4,0-.6.2c-.1.1-.2.3-.2.4,0,.3.2.5.6.6l.8.2c.4,0,.8.3,1,.5s.3.6.3.9-.1.7-.5,1c-.3.3-.7.5-1.3.5s-1.1-.2-1.4-.4c-.3-.3-.5-.6-.6-.9"/>
  <path class="st0" d="M166.8,63.1c-.1-.1-.2-.3-.2-.5s0-.3.2-.5.3-.2.5-.2.3,0,.5.2c.1.1.2.3.2.5s0,.3-.2.5-.3.2-.5.2c-.2,0-.3,0-.5-.2M167.8,69.2h-.9v-4.8h.9v4.8Z"/>
  <path class="st0" d="M171.6,65.2c-.4,0-.8.2-1,.4s-.4.7-.4,1.2.1.9.4,1.2.6.4,1,.4.7,0,.9-.3c.2-.2.4-.4.4-.7l.8.4c-.1.4-.4.7-.8,1s-.8.4-1.4.4-1.3-.2-1.7-.7c-.5-.5-.7-1.1-.7-1.8s.2-1.3.7-1.8c.5-.5,1-.7,1.7-.7s1.1.2,1.4.4c.4.3.6.7.7,1.1l-.8.4c0-.3-.2-.5-.4-.7-.2-.2-.5-.3-.9-.3"/>
  <path class="st0" d="M174.7,67.9c0-.4.1-.7.4-1,.3-.2.6-.4,1.1-.5l1.3-.2c.2,0,.4-.2.4-.4s0-.5-.3-.6c-.2-.2-.4-.2-.8-.2s-.6,0-.8.3c-.2.2-.3.4-.3.7l-.9-.2c0-.5.3-.8.6-1.1.4-.3.8-.4,1.3-.4s1.2.2,1.5.5c.3.3.5.8.5,1.3v2.4c0,.3,0,.5,0,.8h-.9c0-.2,0-.4,0-.7-.1.2-.3.4-.6.6-.2.2-.6.2-1,.2s-.9-.1-1.1-.4c-.3-.3-.4-.6-.4-1M176.4,68.6c.4,0,.8-.1,1-.3.2-.2.4-.6.4-1.1v-.2l-1.5.2c-.2,0-.4.1-.5.2-.1.1-.2.3-.2.5s0,.3.2.5c.1.1.3.2.6.2"/>
  <path class="st0" d="M181.3,66.4v2.8h-.9v-4.8h.9v.7c.3-.6.8-.8,1.5-.8s1,.2,1.3.5.4.8.4,1.4v3h-.9v-2.9c0-.8-.4-1.2-1.1-1.2s-.6.1-.8.4c-.2.2-.3.6-.3.9"/>
  <path class="st0" d="M185.8,67.9c0-.4.1-.7.4-1,.3-.2.6-.4,1.1-.5l1.3-.2c.2,0,.4-.2.4-.4s0-.5-.3-.6c-.2-.2-.4-.2-.8-.2s-.6,0-.8.3c-.2.2-.3.4-.3.7l-.9-.2c0-.5.2-.8.6-1.1s.8-.4,1.3-.4,1.2.2,1.5.5c.3.3.5.8.5,1.3v2.4c0,.3,0,.5,0,.8h-.9c0-.2,0-.4,0-.7-.1.2-.3.4-.6.6-.2.2-.6.2-1,.2s-.9-.1-1.1-.4c-.3-.3-.5-.6-.5-1M187.6,68.6c.4,0,.8-.1,1-.3.2-.2.4-.6.4-1.1v-.2l-1.5.2c-.2,0-.4.1-.5.2-.1.1-.2.3-.2.5s0,.3.2.5c.1.1.3.2.6.2"/>
  <rect class="st0" x="191.5" y="62" width=".9" height="7.2"/>
  <path class="st0" d="M195.2,69.2h-.9v-4.8h.9v4.8ZM196.3,62.4l-1.2,1.5h-.8l.9-1.5h1.2Z"/>
  <path class="st0" d="M198.2,62.9v1.5h1v.8h-1v2.5c0,.2,0,.4.1.5.1.1.3.2.5.2s.3,0,.4,0v.8c-.2,0-.4,0-.6,0-.4,0-.7-.1-1-.4s-.4-.6-.4-1v-2.6h-.9v-.8h.3c.2,0,.4,0,.6-.2.1-.1.2-.3.2-.5v-.8h.9Z"/>
  <path class="st0" d="M200.6,63.1c-.1-.1-.2-.3-.2-.5s0-.3.2-.5.3-.2.5-.2.3,0,.5.2c.1.1.2.3.2.5s0,.3-.2.5c-.1.1-.3.2-.5.2s-.3,0-.5-.2M201.6,69.2h-.9v-4.8h.9v4.8Z"/>
  <path class="st0" d="M205.4,65.2c-.4,0-.8.2-1,.4s-.4.7-.4,1.2.1.9.4,1.2.6.4,1,.4.7,0,.9-.3c.2-.2.4-.4.4-.7l.8.4c-.1.4-.4.7-.8,1s-.8.4-1.4.4-1.3-.2-1.7-.7c-.5-.5-.7-1.1-.7-1.8s.2-1.3.7-1.8c.5-.5,1-.7,1.7-.7s1.1.2,1.4.4c.4.3.6.7.7,1.1l-.8.4c0-.3-.2-.5-.4-.7-.2-.2-.5-.3-.9-.3"/>
  <path class="st0" d="M208.5,67.9c0-.4.1-.7.4-1,.3-.2.6-.4,1.1-.5l1.3-.2c.2,0,.4-.2.4-.4s0-.5-.3-.6c-.2-.2-.4-.2-.8-.2s-.6,0-.8.3c-.2.2-.3.4-.3.7l-.9-.2c0-.5.2-.8.6-1.1s.8-.4,1.3-.4,1.2.2,1.5.5c.3.3.5.8.5,1.3v2.4c0,.3,0,.5,0,.8h-.9c0-.2,0-.4,0-.7-.1.2-.3.4-.6.6-.3.2-.6.2-1,.2s-.9-.1-1.1-.4c-.3-.3-.4-.6-.4-1M210.2,68.6c.4,0,.8-.1,1-.3.2-.2.4-.6.4-1.1v-.2l-1.5.2c-.2,0-.4.1-.5.2-.1.1-.2.3-.2.5s0,.3.2.5c.1.1.3.2.6.2"/>
  <path class="st0" d="M144.6,78.5h0c-.1.2-.3.4-.6.5s-.6.2-.9.2c-.7,0-1.2-.2-1.6-.7s-.6-1.1-.6-1.8.2-1.3.6-1.8c.4-.5,1-.7,1.6-.7s.7,0,.9.2c.2.2.4.3.5.6v-3.1h.9v6.3c0,.3,0,.6,0,.9h-.9c0-.2,0-.4,0-.6M141.8,76.7c0,.5.1.9.4,1.2s.6.5,1,.5.8-.2,1-.5c.2-.3.4-.7.4-1.2s-.1-.9-.4-1.2c-.2-.3-.6-.5-1-.5s-.8.2-1,.5c-.3.3-.4.7-.4,1.2"/>
  <path class="st0" d="M150.6,77.5l.8.3c-.1.4-.4.8-.8,1.1-.4.3-.8.4-1.4.4s-1.2-.2-1.7-.7c-.5-.5-.7-1.1-.7-1.9s.2-1.3.7-1.8c.4-.5,1-.7,1.6-.7s1.3.2,1.7.7c.4.4.6,1.1.6,1.8s0,.2,0,.3h-3.6c0,.4.1.8.4,1,.3.3.6.4,1,.4.7,0,1.1-.3,1.3-1M147.9,76.2h2.6c0-.4-.1-.7-.4-.9s-.5-.3-.9-.3-.7.1-.9.4c-.2.2-.4.5-.4.9"/>
  <path class="st0" d="M158.2,76.2h-1.6v2.9h-1v-7h2.6c.6,0,1.2.2,1.6.6.4.4.6.9.6,1.5s-.2,1.1-.6,1.5c-.4.4-.9.6-1.6.6M156.6,75.4h1.4c.4,0,.8-.1,1-.3s.4-.5.4-.9-.1-.7-.4-.9-.6-.3-1-.3h-1.4v2.4Z"/>
  <path class="st0" d="M161.6,74.9c.5-.5,1-.7,1.8-.7s1.3.2,1.8.7.7,1.1.7,1.8-.2,1.3-.7,1.8c-.5.5-1,.7-1.8.7s-1.3-.2-1.8-.7c-.5-.5-.7-1.1-.7-1.8,0-.7.2-1.3.7-1.8M162.3,78c.3.3.6.4,1.1.4s.8-.2,1.1-.4c.3-.3.4-.7.4-1.3s-.1-.9-.4-1.2c-.3-.3-.6-.4-1.1-.4s-.8.2-1.1.4c-.3.3-.4.7-.4,1.2,0,.5.1,1,.4,1.3"/>
  <path class="st0" d="M169.8,74.3v1c-.1,0-.3,0-.4,0-.9,0-1.3.5-1.3,1.5v2.4h-.9v-4.8h.9v.8c.3-.6.8-.9,1.4-.9s.2,0,.3,0"/>
  <path class="st0" d="M172.5,72.8v1.5h1v.8h-1v2.5c0,.2,0,.4.1.5.1.1.3.2.5.2s.3,0,.4,0v.8c-.2,0-.4,0-.6,0-.4,0-.7-.1-1-.4s-.4-.6-.4-1v-2.6h-.9v-.8h.3c.2,0,.4,0,.6-.2.1-.1.2-.3.2-.5v-.8h.9Z"/>
  <path class="st0" d="M175.2,74.9c.5-.5,1-.7,1.8-.7s1.3.2,1.8.7.7,1.1.7,1.8-.2,1.3-.7,1.8c-.5.5-1,.7-1.8.7s-1.3-.2-1.8-.7c-.5-.5-.7-1.1-.7-1.8,0-.7.2-1.3.7-1.8M175.9,78c.3.3.6.4,1.1.4s.8-.2,1.1-.4c.3-.3.4-.7.4-1.3s-.1-.9-.4-1.2c-.3-.3-.6-.4-1.1-.4s-.8.2-1.1.4-.4.7-.4,1.2c0,.5.1,1,.4,1.3"/>
  <path class="st0" d="M188.4,79.1l-.8-2h-3.1l-.8,2h-1l2.8-7h1.1l2.8,7h-1.1ZM186.1,73.1l-1.2,3.2h2.4l-1.2-3.2Z"/>
  <rect class="st0" x="190.6" y="71.9" width=".9" height="7.2"/>
  <path class="st0" d="M196.6,77.5l.8.3c-.1.4-.4.8-.8,1.1-.4.3-.8.4-1.4.4s-1.2-.2-1.7-.7-.7-1.1-.7-1.9.2-1.3.7-1.8c.4-.5,1-.7,1.6-.7s1.3.2,1.7.7c.4.4.6,1.1.6,1.8s0,.2,0,.3h-3.6c0,.4.1.8.4,1,.3.3.6.4,1,.4.7,0,1.1-.3,1.3-1M193.9,76.2h2.6c0-.4-.1-.7-.4-.9-.2-.2-.5-.3-.9-.3s-.7.1-.9.4c-.2.2-.4.5-.4.9"/>
  <path class="st0" d="M198.5,79.4l.9-.2c0,.3.2.6.4.8.2.2.5.3.9.3,1,0,1.5-.5,1.5-1.6v-.7c-.1.2-.3.4-.6.6s-.6.2-.9.2c-.6,0-1.2-.2-1.6-.7s-.6-1-.6-1.7.2-1.2.6-1.7.9-.7,1.6-.7,1.2.2,1.5.8v-.7h.9v4.4c0,.3,0,.6-.1.9,0,.3-.2.5-.4.8s-.4.4-.8.6c-.3.1-.7.2-1.1.2s-1.1-.2-1.5-.5-.7-.8-.7-1.3M200.9,78.1c.4,0,.7-.1,1-.4s.4-.7.4-1.1-.1-.8-.4-1.1-.6-.4-1-.4-.7.1-1,.4-.4.7-.4,1.1.1.8.4,1.1c.3.3.6.4,1,.4"/>
  <path class="st0" d="M207.4,74.3v1c-.1,0-.3,0-.4,0-.9,0-1.3.5-1.3,1.5v2.4h-.9v-4.8h.9v.8c.3-.6.8-.9,1.4-.9s.2,0,.3,0"/>
  <path class="st0" d="M211.9,77.5l.8.3c-.1.4-.4.8-.8,1.1-.4.3-.8.4-1.4.4s-1.2-.2-1.7-.7-.7-1.1-.7-1.9.2-1.3.7-1.8c.4-.5,1-.7,1.6-.7s1.3.2,1.7.7c.4.4.6,1.1.6,1.8s0,.2,0,.3h-3.6c0,.4.1.8.4,1,.3.3.6.4,1,.4.7,0,1.1-.3,1.3-1M209.2,76.2h2.6c0-.4-.1-.7-.4-.9-.2-.2-.5-.3-.9-.3s-.7.1-.9.4c-.2.2-.4.5-.4.9"/>
  <path class="st0" d="M21.4,48.1c0,2.7-2.2,4.9-4.9,4.9s-4.9-2.2-4.9-4.9,2.2-4.9,4.9-4.9,4.9,2.2,4.9,4.9"/>
  <path class="st0" d="M32.4,24.3c-7.7-5.2-18.1-3.1-23.3,4.5-3.5,5.2-3.7,11.6-1.1,16.9-1.3-3.8-.8-8.2,1.6-11.8,4.2-6.2,12.6-7.8,18.8-3.7,6.2,4.2,7.8,12.6,3.7,18.8-2.3,3.5-6,5.5-9.9,5.9,0,0-.1,0-.2,0,5.7.4,11.5-2.2,15-7.3,5.2-7.7,3.1-18.1-4.5-23.3"/>
  <path class="st0" d="M44.9,5.8C32.1-2.8,14.8.5,6.1,13.3,0,22.4,0,33.9,5.1,42.8c0,0,0-.1,0-.2-.6-1.9-.9-3.9-.9-6,0-11,8.9-20,20-20s20,8.9,20,20-8,19-18.2,19.9c-.1,0-.2,0-.3,0,10.2,1.4,20.8-2.9,27-12,8.6-12.8,5.2-30.1-7.6-38.8"/>
  <path class="st0" d="M26.2,33.6c-5.1-3.5-12.1-2.1-15.5,3-2.1,3.1-2.4,6.8-1.2,10,0-.2,0-.5,0-.7,0-4.6,3.7-8.3,8.3-8.3s8.3,3.7,8.3,8.3-1.9,6-4.6,7.4c-.4.2-.8.5-1.2.6,3.4-.1,6.8-1.8,8.8-4.9,3.5-5.1,2.1-12.1-3-15.5"/>
</svg>