<svg id="Layer_1" data-name="Layer 1" xmlns="http://www.w3.org/2000/svg" viewBox="0 0 526.91 190.74"><defs><style>.cls-1,.cls-2,.cls-3{fill:#fff;}.cls-1{fill-rule:evenodd;}.cls-3{opacity:0;}</style></defs><title>Artboard 1_ok</title><path class="cls-1" d="M34.83,79.23h.59a9.76,9.76,0,0,0,2.24,4.39,4.78,4.78,0,0,0,3.55,1.43,4.11,4.11,0,0,0,3.09-1.27,4.3,4.3,0,0,0,1.24-3.15,4.41,4.41,0,0,0-.72-2.58,9.45,9.45,0,0,0-3-2.37L41,75.17C39.08,74,37.93,73.3,37.55,73a8,8,0,0,1-2.13-2.33,5.28,5.28,0,0,1-.59-2.55,5.18,5.18,0,0,1,1.7-4,6.16,6.16,0,0,1,4.35-1.57,9.58,9.58,0,0,1,2.94.51,13.73,13.73,0,0,0,1.75.49.65.65,0,0,0,.34-.11,1.11,1.11,0,0,0,.31-.36h.84v5.29h-.53a8.59,8.59,0,0,0-2.23-3.87,4.9,4.9,0,0,0-3.45-1.32,3.81,3.81,0,0,0-2.77,1.09A3.62,3.62,0,0,0,37,67,4.07,4.07,0,0,0,38,69.75a18.43,18.43,0,0,0,4.43,3.1,14.28,14.28,0,0,1,4.37,3.23,5.54,5.54,0,0,1,1,3.33,5.87,5.87,0,0,1-1.9,4.44,6.58,6.58,0,0,1-4.73,1.8A11.46,11.46,0,0,1,38,85.16c-1.1-.33-1.67-.49-1.71-.49a.72.72,0,0,0-.42.13,1.1,1.1,0,0,0-.34.34H35l-.14-5.91ZM53.16,74a13,13,0,0,0,2.27,8,7.18,7.18,0,0,0,8.35,2.61,6,6,0,0,0,2-1.34,11,11,0,0,0,2.56-4A14.61,14.61,0,0,0,69.31,74a13.21,13.21,0,0,0-2.18-7.93,6.71,6.71,0,0,0-5.72-3,6.89,6.89,0,0,0-3.12.74A8.14,8.14,0,0,0,55.64,66a10.33,10.33,0,0,0-1.86,3.52A14.9,14.9,0,0,0,53.16,74Zm8.06,11.62a11.55,11.55,0,0,1-4-.68A9.07,9.07,0,0,1,54.06,83a11.58,11.58,0,0,1-3.82-8.91,12.59,12.59,0,0,1,.81-4.61A10.59,10.59,0,0,1,57,63.38a11.12,11.12,0,0,1,4.24-.83,10.59,10.59,0,0,1,7.92,3.07,11,11,0,0,1,3,8.07,13.39,13.39,0,0,1-.54,3.81A12.12,12.12,0,0,1,70,80.87a10.55,10.55,0,0,1-3.82,3.52,10.41,10.41,0,0,1-5,1.26ZM94.06,77.8,93.84,83a15.45,15.45,0,0,1-4.14,2,15.69,15.69,0,0,1-4.6.66,11.78,11.78,0,0,1-4.33-.81,10.68,10.68,0,0,1-3.58-2.34,10.47,10.47,0,0,1-2.42-3.7A13.23,13.23,0,0,1,74,74.09,11.49,11.49,0,0,1,77,65.75a10.72,10.72,0,0,1,8.07-3.18,11.11,11.11,0,0,1,2.65.35A21.7,21.7,0,0,1,90.93,64l.67.32a2.48,2.48,0,0,0,.88.32.53.53,0,0,0,.34-.11A.55.55,0,0,0,93,64.2h.89v6.06h-.44a10.66,10.66,0,0,0-3.19-5.15,7.61,7.61,0,0,0-5.07-1.79,7.33,7.33,0,0,0-6,2.93,11.92,11.92,0,0,0-2.34,7.66,11.48,11.48,0,0,0,2.53,7.7,8.15,8.15,0,0,0,6.5,3,7.21,7.21,0,0,0,4.94-1.75,9.4,9.4,0,0,0,2.81-5Zm2.75,7.43v-.81l2.29-.14V64l-2.29-.12v-.8h1.43l2.26,0,2.25,0h1.35v.8l-2.22.12V84.28l2.22.14v.81l-1.89-.07c-.63,0-1.23,0-1.83,0s-1.2,0-1.79,0l-1.78.07Zm26-22.12V67.9h-.93v-.6c0-1.44-.23-2.39-.7-2.82s-1.68-.66-3.6-.66H111.7l0,9.38h2.7a9.11,9.11,0,0,0,2-.16,1.22,1.22,0,0,0,.84-.53,11.58,11.58,0,0,0,.53-3c0-.13,0-.21,0-.27h.86c0,1-.1,2-.13,2.86s-.05,1.7-.05,2.46,0,1.28,0,1.77,0,1,0,1.49h-.94v-.19a13.25,13.25,0,0,0-.36-3.3.79.79,0,0,0-.56-.36,11.7,11.7,0,0,0-2-.1h-3l0,8.52a2.47,2.47,0,0,0,.36,1.62,2.1,2.1,0,0,0,1.48.37h8.28l1.46-5H124l-.37,5.76h-11.9c-.86,0-1.71,0-2.55,0l-2.53.07,0-.81,2.31-.14V64l-2.31-.15,0-.81c.92,0,1.83.06,2.73.08l2.7,0Zm12.24,21.44a8.76,8.76,0,0,0,6.86-2.8,10.94,10.94,0,0,0,2.53-7.6,10.18,10.18,0,0,0-3-7.71,11.21,11.21,0,0,0-8.07-2.86,7.49,7.49,0,0,0-1.83.13,1,1,0,0,0-.59.48,20.81,20.81,0,0,0-.18,3.07q-.08,2.85-.08,7.34,0,5,.05,6.93a15.66,15.66,0,0,0,.13,2.26c.09.26.46.45,1.13.58a19.86,19.86,0,0,0,3,.18Zm-9.26.68,0-.81,2.22-.11V64l-2.22-.12v-.8h.36c1.24,0,2.14,0,2.69,0,1.29,0,2.68,0,4.19-.1l2.58-.09c3.69,0,6.58,1,8.65,2.94s3.11,4.69,3.11,8.2a11.43,11.43,0,0,1-1.43,5.7,10.36,10.36,0,0,1-4,4,11,11,0,0,1-3.13,1.11,22.56,22.56,0,0,1-4.27.34l-2.11,0-2.67,0c-.59,0-1.22,0-1.87,0l-2.08.07Zm30.46-18.65L153.2,74.9h6.17l-3.09-8.32Zm-9.23,18.65v-1l.94-.07a1.09,1.09,0,0,0,.7-.26,1.89,1.89,0,0,0,.5-.79L157,62.57h.35l8.08,20.2a3.08,3.08,0,0,0,.68,1.19,1.63,1.63,0,0,0,1,.28h.12l0,1-1.73-.07c-.6,0-1.2,0-1.8,0s-1.19,0-1.81,0l-1.92.07v-.89l1.64-.1a3.3,3.3,0,0,0,.85-.1.24.24,0,0,0,.18-.24.34.34,0,0,0,0-.09s0-.09,0-.16l-3-8.07H153l-2.74,7.6a3.09,3.09,0,0,0-.15.41,1.12,1.12,0,0,0,0,.27c0,.2.19.31.58.34h.07l1.63.1v.92L151,85.16c-.42,0-.85,0-1.29,0s-.86,0-1.3,0l-1.37.07Zm30.43-.68a8.75,8.75,0,0,0,6.85-2.8,10.94,10.94,0,0,0,2.53-7.6,10.18,10.18,0,0,0-3-7.71,11.21,11.21,0,0,0-8.07-2.86,7.49,7.49,0,0,0-1.83.13,1,1,0,0,0-.59.48,20.81,20.81,0,0,0-.18,3.07q-.08,2.85-.08,7.34,0,5,.05,6.93a13.55,13.55,0,0,0,.14,2.26c.08.26.45.45,1.12.58a19.92,19.92,0,0,0,3,.18Zm-9.27.68,0-.81,2.22-.11V64l-2.22-.12v-.8h.36c1.24,0,2.14,0,2.7,0,1.28,0,2.67,0,4.18-.1l2.58-.09c3.69,0,6.58,1,8.65,2.94s3.11,4.69,3.11,8.2a11.43,11.43,0,0,1-1.43,5.7,10.36,10.36,0,0,1-4,4,11.06,11.06,0,0,1-3.12,1.11,22.74,22.74,0,0,1-4.28.34l-2.11,0-2.67,0c-.59,0-1.21,0-1.87,0l-2.08.07Zm39.88-22.12V67.9h-.93v-.6c0-1.44-.23-2.39-.7-2.82s-1.67-.66-3.6-.66H197l0,9.38h2.7a9.23,9.23,0,0,0,2-.16,1.2,1.2,0,0,0,.83-.53,11.58,11.58,0,0,0,.53-3c0-.13,0-.21,0-.27h.87c-.06,1-.11,2-.14,2.86s0,1.7,0,2.46,0,1.28,0,1.77,0,1,.05,1.49h-.95v-.19a13.25,13.25,0,0,0-.36-3.3A.77.77,0,0,0,202,74a11.78,11.78,0,0,0-2-.1h-3l0,8.52a2.47,2.47,0,0,0,.36,1.62,2.07,2.07,0,0,0,1.47.37h8.29l1.46-5h.71l-.36,5.76H197c-.86,0-1.72,0-2.56,0l-2.53.07,0-.81,2.31-.14V64l-2.31-.15,0-.81c.92,0,1.83.06,2.73.08l2.71,0Z"/><path class="cls-1" d="M18.2,116.89c.45.06.88.1,1.29.13l1.2,0c2.93,0,5.11-.66,6.55-2s2.16-3.27,2.16-5.91a6.83,6.83,0,0,0-2.28-5.56c-1.51-1.26-3.72-1.9-6.61-1.9a5.41,5.41,0,0,0-1.86.2.79.79,0,0,0-.45.76v14.21ZM10.76,133.7l0-1.2,3.41-.22v-30l-3.41-.17v-1.2H11c1.6.07,2.78.1,3.5.1,1.61,0,3.44-.06,5.5-.16s3.32-.16,3.76-.16q4.62,0,7.14,2.18A7.69,7.69,0,0,1,33.44,109q0,4.66-3.07,6.83c-2.05,1.45-5.27,2.17-9.68,2.17H18.2v14.36l3.59.17,0,1.2c-.91,0-1.83-.09-2.75-.11l-2.75,0c-.92,0-1.83,0-2.75,0s-1.84.06-2.76.11Zm26.07-8.88h.87A14.56,14.56,0,0,0,41,131.31a7.08,7.08,0,0,0,5.25,2.12,6.12,6.12,0,0,0,4.57-1.88,6.41,6.41,0,0,0,1.84-4.66,6.52,6.52,0,0,0-1.06-3.82,14.31,14.31,0,0,0-4.38-3.51c-.3-.16-.72-.41-1.26-.74a59.66,59.66,0,0,1-5.12-3.22,12.08,12.08,0,0,1-3.16-3.43,7.93,7.93,0,0,1-.86-3.78,7.64,7.64,0,0,1,2.51-5.89,9.09,9.09,0,0,1,6.43-2.31,14.23,14.23,0,0,1,4.35.74,21.37,21.37,0,0,0,2.59.74.9.9,0,0,0,.51-.18,1.7,1.7,0,0,0,.46-.52h1.24v7.82h-.8a12.67,12.67,0,0,0-3.29-5.73,7.32,7.32,0,0,0-5.1-2,5.59,5.59,0,0,0-4.09,1.63,5.36,5.36,0,0,0-1.67,4,6,6,0,0,0,1.59,4.06c1,1.2,3.24,2.74,6.54,4.59s5.52,3.47,6.48,4.79A8.14,8.14,0,0,1,56,125.09a8.69,8.69,0,0,1-2.8,6.56,9.76,9.76,0,0,1-7,2.65,16.36,16.36,0,0,1-4.78-.72c-1.62-.47-2.46-.71-2.53-.71a1.17,1.17,0,0,0-.62.18,1.41,1.41,0,0,0-.49.51H37l-.2-8.74Zm23.35,8.88v-1.2l3.39-.22v-30l-3.39-.17v-1.2c.66,0,1.36,0,2.12,0l3.34,0,3.32,0c.72,0,1.39,0,2,0l0,1.2-3.28.17v30l3.28.22,0,1.2c-.94,0-1.88-.09-2.8-.11l-2.71,0q-1.32,0-2.64,0c-.87,0-1.75.06-2.63.11Zm43.9-11-.32,7.68a22.89,22.89,0,0,1-6.13,3,23.55,23.55,0,0,1-6.81,1,17.32,17.32,0,0,1-6.4-1.18,15.68,15.68,0,0,1-5.29-3.47,15.27,15.27,0,0,1-3.57-5.47,19.27,19.27,0,0,1-1.22-7q0-7.64,4.55-12.34a15.87,15.87,0,0,1,11.93-4.69,16.78,16.78,0,0,1,3.92.5,31.14,31.14,0,0,1,4.71,1.64c.24.09.57.26,1,.46a3.65,3.65,0,0,0,1.3.48.72.72,0,0,0,.5-.16.83.83,0,0,0,.26-.51h1.31v9h-.65a15.94,15.94,0,0,0-4.72-7.63A11.22,11.22,0,0,0,91,101.29,10.87,10.87,0,0,0,82,105.63Q78.57,110,78.57,117t3.74,11.38a12.05,12.05,0,0,0,9.61,4.39,10.75,10.75,0,0,0,7.32-2.58,14,14,0,0,0,4.14-7.44ZM119,106.11l-4.56,12.3h9.12L119,106.11ZM105.33,133.7v-1.47l1.39-.1a1.64,1.64,0,0,0,1-.39,2.8,2.8,0,0,0,.73-1.17l11.6-30.38h.52l12,29.87a4.27,4.27,0,0,0,1,1.75,2.39,2.39,0,0,0,1.53.42h.18l0,1.47c-.84,0-1.7-.09-2.57-.11s-1.77,0-2.67,0l-2.67,0c-.91,0-1.86.06-2.83.11v-1.33l2.42-.14a4.68,4.68,0,0,0,1.26-.15.39.39,0,0,0,.27-.36.74.74,0,0,0,0-.12c0-.06,0-.13-.07-.24l-4.47-11.94h-9.84l-4,11.24a4.73,4.73,0,0,0-.22.61,1.46,1.46,0,0,0-.07.4c0,.29.28.46.86.49,0,0,.09,0,.1,0l2.41.14,0,1.37c-.63,0-1.26-.09-1.89-.11s-1.26,0-1.91,0l-1.92,0c-.65,0-1.33.06-2,.11Zm57.05-31.45-3.39-.17v-1.2c.51,0,1.06,0,1.64,0l2.62,0,2.61,0q.88,0,1.62,0l0,1.2-3.46.19c-.07,1.85-.14,5.54-.22,11.09,0,1.45,0,2.57,0,3.34l-.3,17H163l-22.49-28.34.39,27,3.43.17v1.2c-.69,0-1.38-.09-2.08-.11l-2.09,0-2.05,0c-.7,0-1.39.06-2.08.11v-1.2l3.25-.2q.06-3.36.11-7c0-2.43,0-4.91,0-7.46v-13.4A4.19,4.19,0,0,0,137.8,103a8.25,8.25,0,0,0-2.52-.89v-1.2h6.81l20.34,25.73-.05-24.36Zm18.24,3.86-4.56,12.3h9.12l-4.56-12.3ZM167,133.7v-1.47l1.39-.1a1.69,1.69,0,0,0,1.05-.39,3,3,0,0,0,.73-1.17l11.59-30.38h.52l12,29.87a4.39,4.39,0,0,0,1,1.75,2.42,2.42,0,0,0,1.54.42h.17l0,1.47c-.84,0-1.7-.09-2.57-.11s-1.76,0-2.66,0l-2.67,0c-.92,0-1.87.06-2.84.11v-1.33l2.42-.14a4.61,4.61,0,0,0,1.26-.15.37.37,0,0,0,.27-.36.74.74,0,0,0,0-.12c0-.06,0-.13-.06-.24l-4.48-11.94H175.7l-4,11.24c-.1.24-.17.45-.22.61a1.46,1.46,0,0,0-.07.4c0,.29.28.46.86.49a.14.14,0,0,1,.11,0l2.41.14,0,1.37c-.63,0-1.25-.09-1.88-.11s-1.27,0-1.91,0l-1.93,0c-.65,0-1.33.06-2,.11Zm38.56-.14c-1.21,0-2.42,0-3.61,0s-2.39.06-3.56.11v-1.2l3.4-.22v-30l-3.4-.17v-1.2q1,0,2.13,0l3.34,0,3.25,0c.7,0,1.35,0,1.93,0l0,1.2-3.15.17.05,27.58a2.78,2.78,0,0,0,.62,2,2.87,2.87,0,0,0,2,.62h10.72l2.54-7.77h1.32l-.8,8.83Zm19.53.14v-1.2l3.39-.22v-30l-3.39-.17v-1.2c.66,0,1.36,0,2.12,0l3.34,0,3.32,0c.72,0,1.39,0,2,0l0,1.2-3.28.17v30l3.28.22,0,1.2c-.94,0-1.88-.09-2.8-.11l-2.7,0q-1.34,0-2.64,0c-.88,0-1.76.06-2.64.11ZM235,92.37l-6.13,5.24h-1.1l5.44-6.86a4.32,4.32,0,0,1,.87-.89,1.26,1.26,0,0,1,.73-.25,1.25,1.25,0,0,1,.88.34,1.13,1.13,0,0,1,.37.85,1.36,1.36,0,0,1-.22.69,4.89,4.89,0,0,1-.84.88ZM250.12,102h-6.07c-1.77,0-2.94.36-3.52,1.07s-1.08,2.66-1.54,5.87h-1.26l.43-8.17.83.06q1.56.12,2.07.12H263.8q.6,0,2.4-.12l1.08-.06-.36,7.86h-1.19c-.06-.69-.11-1.56-.16-2.61-.13-2.67-1-4-2.55-4h-8.75v30.25l3.31.22v1.2c-.93,0-1.86-.09-2.78-.11l-2.75,0-2.67,0c-.9,0-1.79.06-2.65.11v-1.2l3.39-.22V102Zm19.43,31.67v-1.2l3.39-.22v-30l-3.39-.17v-1.2q1,0,2.13,0l3.33,0,3.33,0c.72,0,1.38,0,2,0l0,1.2-3.28.17v30l3.28.22,0,1.2c-.94,0-1.88-.09-2.8-.11l-2.71,0q-1.32,0-2.64,0c-.87,0-1.75.06-2.64.11Zm43.9-11-.31,7.68a23.1,23.1,0,0,1-6.14,3,23.53,23.53,0,0,1-6.8,1,17.25,17.25,0,0,1-6.4-1.18,15.58,15.58,0,0,1-5.29-3.47,15.29,15.29,0,0,1-3.58-5.47,19.49,19.49,0,0,1-1.21-7q0-7.64,4.55-12.34a15.87,15.87,0,0,1,11.93-4.69,16.85,16.85,0,0,1,3.92.5,30.68,30.68,0,0,1,4.7,1.64c.24.09.57.26,1,.46a3.65,3.65,0,0,0,1.3.48.74.74,0,0,0,.51-.16.89.89,0,0,0,.26-.51h1.3v9h-.65a15.86,15.86,0,0,0-4.71-7.63,11.26,11.26,0,0,0-7.49-2.64,10.86,10.86,0,0,0-8.93,4.34Q288,110,288,117t3.74,11.38a12,12,0,0,0,9.6,4.39,10.73,10.73,0,0,0,7.32-2.58,14,14,0,0,0,4.14-7.44Zm14.91-16.6-4.55,12.3h9.11l-4.56-12.3ZM314.7,133.7v-1.47l1.4-.1a1.66,1.66,0,0,0,1-.39,2.91,2.91,0,0,0,.73-1.17l11.6-30.38H330l12,29.87a4.39,4.39,0,0,0,1,1.75,2.42,2.42,0,0,0,1.54.42h.17l0,1.47c-.84,0-1.69-.09-2.57-.11s-1.76,0-2.66,0l-2.67,0c-.92,0-1.86.06-2.84.11v-1.33l2.43-.14a4.51,4.51,0,0,0,1.25-.15.37.37,0,0,0,.27-.36.3.3,0,0,0,0-.12c0-.06,0-.13-.06-.24l-4.47-11.94h-9.85l-4,11.24c-.1.24-.18.45-.23.61a2,2,0,0,0-.07.4c0,.29.29.46.86.49.06,0,.1,0,.11,0l2.41.14,0,1.37c-.63,0-1.26-.09-1.89-.11s-1.27,0-1.91,0l-1.92,0c-.66,0-1.33.06-2,.11Z"/><path class="cls-1" d="M63.71,167.06a7.63,7.63,0,0,0,6-2.44,9.51,9.51,0,0,0,2.2-6.6,8.85,8.85,0,0,0-2.59-6.71,9.73,9.73,0,0,0-7-2.48,6.47,6.47,0,0,0-1.59.11.8.8,0,0,0-.51.42A16,16,0,0,0,60,152c0,1.65-.07,3.78-.07,6.37,0,2.87,0,4.88,0,6a14.25,14.25,0,0,0,.12,2c.07.22.4.39,1,.5a16.53,16.53,0,0,0,2.63.16Zm-8.06.59V167l1.93-.11V149.17l-1.93-.11v-.7l.31,0,2.34,0c1.12,0,2.33,0,3.64-.08l2.24-.08q4.81,0,7.52,2.55a9.34,9.34,0,0,1,2.7,7.13,9.86,9.86,0,0,1-1.24,4.95,9,9,0,0,1-3.47,3.47,9.6,9.6,0,0,1-2.72,1,19.76,19.76,0,0,1-3.72.3l-1.83,0-2.33,0c-.51,0-1,0-1.62,0l-1.81.06Zm34.67-19.23v4.16h-.81v-.51a3.46,3.46,0,0,0-.61-2.46c-.41-.38-1.45-.57-3.13-.57H80.64l0,8.15H83a8.32,8.32,0,0,0,1.77-.14,1,1,0,0,0,.73-.46,9.91,9.91,0,0,0,.46-2.57q0-.17,0-.24h.75q-.08,1.33-.12,2.49c0,.77,0,1.48,0,2.13s0,1.12,0,1.55,0,.86,0,1.3h-.82v-.18a11.57,11.57,0,0,0-.31-2.87.7.7,0,0,0-.48-.31,12,12,0,0,0-1.77-.08h-2.6l0,7.4a2.13,2.13,0,0,0,.31,1.41,1.82,1.82,0,0,0,1.29.33h7.2l1.26-4.39h.63l-.32,5H80.67c-.75,0-1.49,0-2.23,0s-1.47,0-2.2.06V167l2-.13V149.17l-2-.13v-.7l2.38.06,2.35,0Zm11,9.35c.27,0,.52.06.77.08h.7a5.57,5.57,0,0,0,3.85-1.15,4.46,4.46,0,0,0,1.27-3.47,4,4,0,0,0-1.34-3.27,5.94,5.94,0,0,0-3.89-1.12,3.35,3.35,0,0,0-1.09.12.48.48,0,0,0-.27.45v8.35Zm-4.36,9.88,0-.7,2-.13V149.17l-2-.11v-.7h.16c.94,0,1.63.06,2.06.06.94,0,2,0,3.23-.09s2-.1,2.21-.1a6.21,6.21,0,0,1,4.19,1.28,4.49,4.49,0,0,1,1.49,3.61,4.58,4.58,0,0,1-1.8,4c-1.21.85-3.1,1.27-5.69,1.27h-1.47v8.44l2.12.11,0,.7c-.53,0-1.07-.05-1.61-.06s-1.08,0-1.62,0-1.07,0-1.62,0-1.08,0-1.61.06Zm17-9.73a11.22,11.22,0,0,0,2,6.92,6.07,6.07,0,0,0,5.08,2.65,5.86,5.86,0,0,0,2.17-.39A5.34,5.34,0,0,0,125,166a9.53,9.53,0,0,0,2.23-3.53,12.69,12.69,0,0,0,.8-4.5,11.54,11.54,0,0,0-1.89-6.9,5.88,5.88,0,0,0-5-2.6,6,6,0,0,0-2.72.65,6.94,6.94,0,0,0-2.29,1.86,9.17,9.17,0,0,0-1.62,3.06,13.2,13.2,0,0,0-.54,3.93ZM121,168a10,10,0,0,1-3.46-.59,7.58,7.58,0,0,1-2.76-1.69,10.44,10.44,0,0,1-2.51-3.49,10.56,10.56,0,0,1-.82-4.25,11,11,0,0,1,.71-4,9.17,9.17,0,0,1,5.15-5.32,9.49,9.49,0,0,1,3.69-.73,9.2,9.2,0,0,1,6.88,2.67,9.6,9.6,0,0,1,2.62,7,11.79,11.79,0,0,1-.47,3.32,10.78,10.78,0,0,1-1.38,2.93,9.29,9.29,0,0,1-3.33,3.06A9,9,0,0,1,121,168Zm15.69-18.3,0,7.82H139a6.66,6.66,0,0,0,1.27-.08,2.43,2.43,0,0,0,.74-.29,3.73,3.73,0,0,0,1.38-1.6,5.34,5.34,0,0,0,.48-2.32,4.1,4.1,0,0,0-1.31-3.32,6.06,6.06,0,0,0-4-1.09,1.18,1.18,0,0,0-.75.18.92.92,0,0,0-.2.7Zm-4.4,17.94V167l2-.13V149.17l-2-.11v-.7h.15q1.43.06,2,.06c.94,0,2,0,3.13-.09s1.84-.1,2.06-.1a6,6,0,0,1,4.09,1.3,4.44,4.44,0,0,1,1.48,3.54,4.57,4.57,0,0,1-.84,2.76,6.58,6.58,0,0,1-2.62,2l4.57,7a11,11,0,0,0,1.21,1.54,2.29,2.29,0,0,0,1,.7v.52l-1.05,0-.84,0a2.18,2.18,0,0,1-1.45-.56,10,10,0,0,1-1.67-2.23l-4-6.6-2.84-.1,0,8.71,2.08.11v.7q-.81,0-1.62-.06c-.54,0-1.08,0-1.61,0s-1.08,0-1.62,0-1.08,0-1.62.06ZM154.22,149h-3.57a2.6,2.6,0,0,0-2.06.62,8.68,8.68,0,0,0-.91,3.46h-.74l.25-4.8.49,0c.61,0,1,.07,1.22.07h13.36c.24,0,.71,0,1.41-.07l.64,0-.21,4.62h-.7c0-.41-.07-.92-.1-1.54-.07-1.57-.58-2.36-1.5-2.36h-5.14v17.78l1.94.13v.7c-.54,0-1.09-.05-1.63-.06s-1.08,0-1.62,0-1,0-1.57,0-1.05,0-1.56.06V167l2-.13V149Zm13.63,8.88a11.22,11.22,0,0,0,2,6.92,6.07,6.07,0,0,0,5.08,2.65,5.86,5.86,0,0,0,2.17-.39,5.34,5.34,0,0,0,1.78-1.15,9.53,9.53,0,0,0,2.23-3.53,12.69,12.69,0,0,0,.8-4.5A11.54,11.54,0,0,0,180,151a5.88,5.88,0,0,0-5-2.6,6,6,0,0,0-2.71.65,6.88,6.88,0,0,0-2.3,1.86,9.17,9.17,0,0,0-1.62,3.06,13.2,13.2,0,0,0-.54,3.93Zm7,10.09a10.06,10.06,0,0,1-3.46-.59,7.58,7.58,0,0,1-2.76-1.69,10.44,10.44,0,0,1-2.51-3.49,10.56,10.56,0,0,1-.82-4.25,11,11,0,0,1,.71-4,9.25,9.25,0,0,1,5.15-5.32,9.49,9.49,0,0,1,3.69-.73,9.2,9.2,0,0,1,6.88,2.67,9.6,9.6,0,0,1,2.62,7,11.79,11.79,0,0,1-.47,3.32,10.49,10.49,0,0,1-1.38,2.93,9.29,9.29,0,0,1-3.33,3.06,9,9,0,0,1-4.32,1.09Zm21.83-16.57L194,158.66h5.36l-2.68-7.22Zm-8,16.21v-.86l.82-.06a1,1,0,0,0,.61-.23,1.61,1.61,0,0,0,.43-.69L197.34,148h.3l7,17.56a2.64,2.64,0,0,0,.59,1,1.38,1.38,0,0,0,.9.25h.11l0,.86c-.49,0-1-.05-1.51-.06s-1,0-1.56,0-1,0-1.57,0l-1.67.06v-.78l1.43-.08a2.77,2.77,0,0,0,.74-.09.23.23,0,0,0,.15-.21.2.2,0,0,0,0-.07.51.51,0,0,0,0-.14l-2.63-7H193.8l-2.38,6.6c-.06.14-.1.27-.13.36a.85.85,0,0,0,0,.24c0,.17.17.27.5.29h.07l1.41.08v.81q-.56,0-1.11-.06c-.37,0-.74,0-1.12,0s-.75,0-1.13,0l-1.2.06Zm22.67-.08c-.72,0-1.43,0-2.13,0s-1.4,0-2.09.06V167l2-.13V149.17l-2-.11v-.7l1.25,0h3.88l1.13,0,0,.7-1.85.11,0,16.21a1.34,1.34,0,0,0,1.57,1.57h6.31l1.49-4.57h.78l-.48,5.19Zm25.44-19.15v4.16H236v-.51a3.46,3.46,0,0,0-.61-2.46q-.61-.57-3.12-.57h-5.14l0,8.15h2.35a8.19,8.19,0,0,0,1.77-.14,1,1,0,0,0,.73-.46,9.91,9.91,0,0,0,.46-2.57q0-.17,0-.24h.75q-.08,1.33-.12,2.49c0,.77,0,1.48,0,2.13s0,1.12,0,1.55,0,.86,0,1.3h-.82v-.18a11.89,11.89,0,0,0-.32-2.87.68.68,0,0,0-.48-.31,11.85,11.85,0,0,0-1.76-.08h-2.61l0,7.4a2.13,2.13,0,0,0,.31,1.41,1.82,1.82,0,0,0,1.29.33h7.2l1.26-4.39h.63l-.32,5H227.12c-.75,0-1.49,0-2.22,0s-1.47,0-2.2.06l0-.7,2-.13V149.17l-2-.13,0-.7,2.37.06,2.35,0Zm20,16.93a16.64,16.64,0,0,1-4,2,12.55,12.55,0,0,1-4,.67,10.2,10.2,0,0,1-3.78-.71,9.3,9.3,0,0,1-3.12-2,8.74,8.74,0,0,1-2.08-3.2,11.5,11.5,0,0,1-.71-4.1,10,10,0,0,1,2.68-7.26,9.32,9.32,0,0,1,7-2.76,9.63,9.63,0,0,1,2.28.29,19,19,0,0,1,2.69,1l.64.3a2.22,2.22,0,0,0,.68.26.44.44,0,0,0,.34-.13.62.62,0,0,0,.13-.4h.64v5.4h-.37a9.51,9.51,0,0,0-2.69-4.48,6.31,6.31,0,0,0-4.27-1.55,6.45,6.45,0,0,0-5.25,2.53,10.15,10.15,0,0,0-2,6.56,13.21,13.21,0,0,0,.48,3.72,8.67,8.67,0,0,0,1.47,2.89,7.83,7.83,0,0,0,2.69,2.21,7.1,7.1,0,0,0,3.25.8,6.79,6.79,0,0,0,2.56-.5,7.9,7.9,0,0,0,2.32-1.51c0-.24,0-.49,0-.77s0-.68,0-1.22v-1c0-.22,0-.42,0-.59l-2.51-.12v-.7l1.25,0h4l1.23,0v.7l-.9.1a1.21,1.21,0,0,0-.56.14.54.54,0,0,0-.14.42v3.08Zm7-15.64,0,7.82h2.38a6.73,6.73,0,0,0,1.27-.08,2.28,2.28,0,0,0,.73-.29,3.67,3.67,0,0,0,1.38-1.6,5.35,5.35,0,0,0,.49-2.32,4.1,4.1,0,0,0-1.31-3.32,6.06,6.06,0,0,0-4-1.09,1.18,1.18,0,0,0-.75.18.91.91,0,0,0-.21.7Zm-4.39,17.94,0-.7,2-.13V149.17l-2-.11v-.7h.16q1.43.06,2,.06c.94,0,2,0,3.13-.09s1.84-.1,2.06-.1a6,6,0,0,1,4.08,1.3,4.42,4.42,0,0,1,1.49,3.54,4.51,4.51,0,0,1-.85,2.76,6.48,6.48,0,0,1-2.61,2l4.57,7a11.83,11.83,0,0,0,1.2,1.54,2.37,2.37,0,0,0,1,.7v.52l-1.05,0-.84,0a2.21,2.21,0,0,1-1.46-.56,10.37,10.37,0,0,1-1.66-2.23l-4-6.6-2.84-.1,0,8.71,2.09.11v.7q-.81,0-1.62-.06c-.54,0-1.08,0-1.61,0s-1.08,0-1.62,0-1.09,0-1.62.06Zm31.06-19.23v4.16h-.81v-.51a3.46,3.46,0,0,0-.61-2.46c-.41-.38-1.46-.57-3.13-.57h-5.13l0,8.15h2.35a8.32,8.32,0,0,0,1.77-.14,1,1,0,0,0,.73-.46,10.39,10.39,0,0,0,.46-2.57c0-.11,0-.19,0-.24h.76q-.08,1.33-.12,2.49c0,.77,0,1.48,0,2.13s0,1.12,0,1.55,0,.86,0,1.3h-.82v-.18a11.57,11.57,0,0,0-.31-2.87.73.73,0,0,0-.49-.31,11.85,11.85,0,0,0-1.76-.08h-2.6l0,7.4a2.13,2.13,0,0,0,.31,1.41,1.77,1.77,0,0,0,1.28.33h7.2l1.27-4.39h.62l-.31,5H280.82c-.75,0-1.5,0-2.23,0s-1.47,0-2.2.06V167l2-.13V149.17l-2-.13v-.7l2.38.06,2.35,0Z"/><path class="cls-1" d="M372.38,73.25c38.48,2.27,5.64,46.68-6.84,28.07-11.41,1.75-7.55-22.73,6.84-28.07Zm-1.1,5.81c22.65-.1-.22,36.24-5,9.39,1.61-3.53,1.83-6.7,5-9.39Z"/><path class="cls-1" d="M393.22,168v-.43l1.24-.09v-9l-1.24-.09v-.44l1.15,0h6.88c0,.15,0,.29,0,.46v1.47c0,.17,0,.34,0,.49h-.66a2.88,2.88,0,0,0-.42-1.68,2.24,2.24,0,0,0-1.57-.39h-2.34v4.38h.84a1.87,1.87,0,0,0,1.22-.26,3.27,3.27,0,0,0,.33-1.52l.6,0c0,.12,0,.31,0,.57,0,.59,0,1,0,1.34s0,.92,0,1.73c0,.15,0,.25,0,.33h-.63c0-.14,0-.32,0-.55,0-.8-.32-1.2-.83-1.2h-1.48v4.38l1.39.09V168l-1.26,0h-1.92l-1.24,0Zm9.8-9.55-1.14-.08v-.42h.41l1.69,0,1.76,0h.39v.42l-1.21.08v5.67a4.63,4.63,0,0,0,.61,2.65,2.06,2.06,0,0,0,1.83.89,2.44,2.44,0,0,0,2.11-1,4.8,4.8,0,0,0,.72-2.87v-5.3l-1.21-.11v-.44h.89l.62,0,1.16,0h.43v.44l-1.2.11-.1,3.73v0a10.83,10.83,0,0,1-.58,4,3.43,3.43,0,0,1-1.33,1.44,4,4,0,0,1-2,.49,3.62,3.62,0,0,1-2.79-1.09,4.29,4.29,0,0,1-1-3l0-5.64Zm11.91-.5,6.34,7.55v-7l-1.32-.09v-.42h.14l1.32,0,1.13,0h.31v.42l-1.14.09c0,.61,0,1.77-.07,3.46v.86l-.05,5.22h-.33l-7.14-8.26.09,7.74,1.24.09V168l-.78,0h-1.36l-.76,0v-.43l1.19-.09c0-.43,0-.93,0-1.5s0-1.52,0-2.85V159.3l-.34-.4h0a1.49,1.49,0,0,0-.89-.57v-.42Zm17.19,5a4.6,4.6,0,0,0-1.24-3.38,4.44,4.44,0,0,0-3.33-1.26,2.52,2.52,0,0,0-.7.06.48.48,0,0,0-.25.27,5.72,5.72,0,0,0-.09,1.12c0,.65,0,1.66,0,3v1.2c0,1.15,0,1.94,0,2.37a3.42,3.42,0,0,0,.1.84.59.59,0,0,0,.41.37,3.85,3.85,0,0,0,1.07.1,3.69,3.69,0,0,0,3-1.25,5.19,5.19,0,0,0,1.07-3.46ZM423.46,168v-.43l1.25-.09v-9l-1.25-.09v-.42l1.18,0h1.26l1.45,0,.91,0a8,8,0,0,1,2.16.26A5.05,5.05,0,0,1,432,159a4.81,4.81,0,0,1,1.39,1.72,5.07,5.07,0,0,1,.48,2.21,4.67,4.67,0,0,1-1.52,3.71,6.33,6.33,0,0,1-4.29,1.32h-.86l-1,0h-1.28l-1.48,0Zm14.29-7.86-1.33,3.64h2.66l-1.33-3.64Zm.56-2.41h.21l3.63,9a1.51,1.51,0,0,0,.37.64.87.87,0,0,0,.51.12v.44l-.92,0h-2.22l-.89,0v-.44l.82,0h0c.36,0,.53-.1.53-.25a.49.49,0,0,0,0-.11s0-.1-.06-.17l-1.08-2.81H436.3l-1,2.82a1.38,1.38,0,0,0-.08.2.49.49,0,0,0,0,.12s0,.07.09.11l.22,0,.87.06V168l-.71,0h-.59l-.89,0H434v-.45h.07q.6,0,1.29-1.92l.21-.59,2.74-7.29Zm13.95,5.2A4.6,4.6,0,0,0,451,159.5a4.46,4.46,0,0,0-3.33-1.26,2.66,2.66,0,0,0-.71.06.55.55,0,0,0-.25.27,7.42,7.42,0,0,0-.08,1.12c0,.65,0,1.66,0,3v1.2q0,1.72,0,2.37a3.42,3.42,0,0,0,.1.84.59.59,0,0,0,.41.37,3.85,3.85,0,0,0,1.07.1,3.69,3.69,0,0,0,3-1.25,5.19,5.19,0,0,0,1.07-3.46ZM443.6,168v-.43l1.24-.09v-9l-1.24-.09v-.42l1.18,0H446l1.45,0,.91,0a7.9,7.9,0,0,1,2.15.26,5,5,0,0,1,1.64.84,4.81,4.81,0,0,1,1.39,1.72,5.07,5.07,0,0,1,.48,2.21,4.67,4.67,0,0,1-1.52,3.71,6.33,6.33,0,0,1-4.29,1.32h-.86l-1,0h-1.28l-1.48,0Zm14.29-7.86-1.33,3.64h2.66l-1.33-3.64Zm.56-2.41h.21l3.62,9a1.76,1.76,0,0,0,.37.64.93.93,0,0,0,.52.12v.44l-.93,0H460l-.89,0v-.44l.82,0h0c.36,0,.53-.1.53-.25a.49.49,0,0,0,0-.11,1.07,1.07,0,0,1-.06-.17l-1.08-2.81h-2.93l-1,2.82-.07.2a.49.49,0,0,0,0,.12s0,.07.09.11a1,1,0,0,0,.22,0l.87.06V168l-.71,0h-.59l-.89,0h-.21v-.45h.06c.4,0,.84-.64,1.3-1.92l.21-.59,2.74-7.29Zm9,10.27v-.43l1.24-.09v-9l-1.24-.09v-.44l1.16,0h6.87v2.24h-.66a3.15,3.15,0,0,0-.27-1.6c-.17-.22-.66-.33-1.48-.33h-2.58v4.29h.94c.66,0,1.07-.09,1.23-.28a3.34,3.34,0,0,0,.32-1.55l.6,0c0,.12,0,.32,0,.58,0,.58,0,1,0,1.34s0,.91,0,1.73v.32h-.63q0-.21,0-.57c0-.81-.32-1.21-.84-1.21h-1.57v3.49a1.72,1.72,0,0,0,.18,1,.9.9,0,0,0,.74.23h3.4l.6-2.37H476l-.16,2.75-4.84,0h-2.46l-1.06,0Zm11.1-.52h1.29V168l-.75,0h-1.31l-.81,0v-.43l1.24-.09.06-9-1.3-.09v-.42h.41l1.12,0h.59l.93,0,3.64,7.77,3.25-7.77h.3l1.17,0,1.17,0h.29v.42l-1.2.09.05,9,1.2.09V168l-1.19,0h-1.76l-1.16,0v-.43l1.19-.09v-8.91L483.05,168h-.17l-4.34-9.33v8.76Z"/><path class="cls-1" d="M495.63,167.9v-.42l1.35-.06v-8.89H495.7V158l2.7-.18v9.63l1.24.06v.42Zm10.43-4.48c.07-.32.12-.65.16-1a8.1,8.1,0,0,0,.06-1,5.34,5.34,0,0,0-.45-2.46,1.4,1.4,0,0,0-1.3-.85,1.21,1.21,0,0,0-1.07.71,3.94,3.94,0,0,0-.41,1.94,3.71,3.71,0,0,0,.53,2.1,1.63,1.63,0,0,0,1.42.78,1.85,1.85,0,0,0,.44-.06,4.3,4.3,0,0,0,.62-.2Zm-.08.34a6.21,6.21,0,0,1-.81.22,4.16,4.16,0,0,1-.77.07,2.66,2.66,0,0,1-2.06-.85,3.48,3.48,0,0,1,.07-4.5,2.75,2.75,0,0,1,2.09-.91,3,3,0,0,1,2.37,1.06,4.22,4.22,0,0,1,.9,2.82,6.5,6.5,0,0,1-1.13,3.69,8.17,8.17,0,0,1-3.18,2.74l-.11-.21a7.18,7.18,0,0,0,1.62-1.77,8.58,8.58,0,0,0,1-2.36Zm4.59-.95a5,5,0,0,0-.08.7c0,.25,0,.53,0,.83a6.27,6.27,0,0,0,.41,2.56,1.32,1.32,0,0,0,1.24.86,1.27,1.27,0,0,0,1.15-.75,4.51,4.51,0,0,0,.41-2.11,3.53,3.53,0,0,0-.47-2,1.5,1.5,0,0,0-1.3-.71,1.74,1.74,0,0,0-.66.14,2.65,2.65,0,0,0-.67.44Zm.05-.42a3.27,3.27,0,0,1,.9-.44,3.38,3.38,0,0,1,1-.15,2.42,2.42,0,0,1,1.9.84,3.17,3.17,0,0,1,.74,2.17,3.31,3.31,0,0,1-.89,2.36,2.89,2.89,0,0,1-2.2,1,2.74,2.74,0,0,1-2.29-1.14,4.85,4.85,0,0,1-.86-3,5.92,5.92,0,0,1,1.56-4.25,6.55,6.55,0,0,1,4.28-1.92V158a5.49,5.49,0,0,0-2.82,1.51,5.37,5.37,0,0,0-1.33,2.88Zm6,5.71v-.31a6.18,6.18,0,0,0,2.54-1.12,2.17,2.17,0,0,0,.91-1.7,1.58,1.58,0,0,0-.74-1.35,5.15,5.15,0,0,0-2.24-.69v-.3a6.13,6.13,0,0,0,2-1.1,1.73,1.73,0,0,0,.7-1.28,1,1,0,0,0-.35-.81,1.43,1.43,0,0,0-.94-.29,2.86,2.86,0,0,0-.93.17,6.09,6.09,0,0,0-1.09.57l.21-1.68a6.19,6.19,0,0,1,1-.32,4,4,0,0,1,.88-.1,2.69,2.69,0,0,1,1.72.51,1.66,1.66,0,0,1,.65,1.34,2,2,0,0,1-.46,1.3A4.68,4.68,0,0,1,519,162a4.19,4.19,0,0,1,1.84,1,2.16,2.16,0,0,1,.65,1.55,2.72,2.72,0,0,1-1.31,2.23,8,8,0,0,1-3.56,1.28Z"/><path class="cls-2" d="M334.22,181.34a27.14,27.14,0,0,1,.63-2.7,47.88,47.88,0,0,1,7.85-13.52c3.93-5,8.07-9.86,12.14-14.76a118.48,118.48,0,0,1,20.49-19.79c2.58-1.9,5.19-3.78,7.92-5.45s5.79-3.18,8.68-4.78a107.6,107.6,0,0,1,18-7.46c1.81-.61,3.67-1.11,5.53-1.57,2.92-.73,5.83-1.48,8.78-2,2.38-.45,4.81-.65,7.23-.94,2.8-.32,5.59-.65,8.4-.9,1.23-.11,2.49.06,3.73,0,5-.36,9.93-.78,14.9-1.16,1.28-.09,2.57-.09,3.85-.13a1.05,1.05,0,0,1,1.24.9,13.59,13.59,0,0,1-.65,8.37,3.42,3.42,0,0,1-3.55,2.34,18,18,0,0,1-5.55-.93c-4.53-1.86-9.06-1.26-13.67-.69-7.93,1-15.34,3.7-22.74,6.5a128.46,128.46,0,0,0-22.59,11.14,201.28,201.28,0,0,0-16.74,11.62c-6.1,4.73-12,9.75-17.72,15s-11.14,10.92-16.76,16.34a24.38,24.38,0,0,1-3.66,2.46.72.72,0,0,1-.52.07c-1.16-.26-2,.4-2.79,1a22.58,22.58,0,0,1-2.11,1.31Zm60.32-58.19-.13-.29a104.52,104.52,0,0,0-19.54,11.25l.23.39Z"/><path class="cls-2" d="M322.93,71.66c1.69-.64,3.4-1.24,5.07-1.93,3.82-1.57,7.69-3,11.4-4.84,4.75-2.28,9.4-4.75,14-7.3,2.22-1.24,4.26-2.82,6.36-4.28,2.68-1.86,5.47-3.59,8-5.69,3.28-2.77,6.41-5.75,9.44-8.81a67,67,0,0,0,10.23-13.1,2.55,2.55,0,0,0,.42-1.31,5.27,5.27,0,0,0-.61.53,145.18,145.18,0,0,1-23.46,21.74A204,204,0,0,1,341.8,61.1a124.43,124.43,0,0,1-21.63,10.17c-6,2-12,4-18.31,4.49-2.35.17-4.7.33-7.05.27a7.53,7.53,0,0,1-2.46-1.1,15.15,15.15,0,0,0-2.26-1c-.8-.23-1.4-.49-1.45-1.64,1.37-.61,2.79-1.36,4.28-1.89,4.59-1.61,9.26-3,13.81-4.74,7.36-2.79,14.67-5.71,21.95-8.7,5.62-2.31,11.28-4.53,16.54-7.68C356.3,42.63,367,35.52,376.58,26.75a86.9,86.9,0,0,0,13.33-15.07c.89-1.31.9-1.32,2.39-.75s3.24,1.29,4.86,1.92c.62.25,1,.73.75,1.33-.93,2-.7,4.4-2,6.33-2.87,4.15-5.68,8.34-8.47,12.56-2.94,4.45-6.82,8-10.81,11.47a125,125,0,0,1-27,17.66,138.44,138.44,0,0,1-21.87,8.54c-1.34.39-2.68.75-4,1.11a5.21,5.21,0,0,1-.69.09Z"/><path class="cls-2" d="M403.34,38.13C400.4,54.69,401.23,70.77,409.6,86c-.69-1-1.43-2-2.05-3a58.07,58.07,0,0,1-7.41-21.7,94.31,94.31,0,0,1-.84-10.21c-.24-7.78,1.09-15.41,2.64-23a61.58,61.58,0,0,1,2.21-7.2,1.24,1.24,0,0,1,1-.66,27.87,27.87,0,0,1,4.34,1c1.07.35.94,1.38.83,2.29-.2,1.73-.52,3.46-.56,5.2-.13,5.16-.32,10.33-.17,15.48a93.7,93.7,0,0,0,2.61,18.92c1.54,6.54,4.71,12.42,7.7,18.37a48.09,48.09,0,0,0,8.19,11.42c.79.83,1.51,1.71,2.22,2.6.18.22.34.66.24.83a1.4,1.4,0,0,1-.86.49,11.53,11.53,0,0,1-2.46.37,6.21,6.21,0,0,1-2.67-.45A30.58,30.58,0,0,1,413,85.48c-4.23-6.73-6.24-14.23-7.69-21.92a111.07,111.07,0,0,1-1.58-22.67c0-.92,0-1.84,0-2.76Z"/><rect class="cls-3" y="10.57" width="526.91" height="170.97"/></svg>