<svg id="clemente" xmlns="http://www.w3.org/2000/svg" viewBox="0 0 139.61 90.52"><defs><style>.cls-1{fill:#fff;}</style></defs><title>clemente</title><path class="cls-1" d="M105.79,21.14a21,21,0,0,0-7.91,1.45A20.66,20.66,0,0,0,87,33.36a21.06,21.06,0,0,0,0,15.36,19.75,19.75,0,0,0,4.38,6.45,19.55,19.55,0,0,0,6.55,4.32,21.2,21.2,0,0,0,7.91,1.45V53.4a12.36,12.36,0,0,1,0-24.72ZM120.19,27a19.37,19.37,0,0,0-6.52-4.38,20.78,20.78,0,0,0-7.88-1.45h0v7.54a12.36,12.36,0,0,1,0,24.72v7.54h0a21,21,0,0,0,7.88-1.45,19.63,19.63,0,0,0,6.52-4.32,20.17,20.17,0,0,0,4.41-6.45A19.72,19.72,0,0,0,126.07,41,18.91,18.91,0,0,0,120.19,27"/><path class="cls-1" d="M83.69,25.21a28.87,28.87,0,0,0-6.31-3.05,19.52,19.52,0,0,0-6.11-1,20.85,20.85,0,0,0-7.86,1.44,20.61,20.61,0,0,0-6.6,4.33,19.51,19.51,0,0,0-4.45,6.42A19.77,19.77,0,0,0,50.87,41a22.65,22.65,0,0,0,.23,3.34L69.72,60.91c.39,0,.77,0,1.16,0A21.62,21.62,0,0,0,78,59.78a22.12,22.12,0,0,0,6.4-3.51l-4.72-6a12.36,12.36,0,1,1-.17-18.43Z"/><path class="cls-1" d="M47.54,51.42l-5,5.75,7.39,6.66a15.83,15.83,0,0,1-5.77,5,16.79,16.79,0,0,1-7.73,1.7,15.36,15.36,0,0,1-5.26-.88A14.45,14.45,0,0,1,26.65,67a12.34,12.34,0,0,1-3-3.95,10.88,10.88,0,0,1-1-4.72,13,13,0,0,1,1-5,12.63,12.63,0,0,1,2.74-4,14.58,14.58,0,0,1,4.14-2.92l1.64,1.46L37,42a55,55,0,0,1-4.52-4.14,42.36,42.36,0,0,1-3-3.3,10.13,10.13,0,0,1-2.19-6.29,8,8,0,0,1,4.56-7.33,11.07,11.07,0,0,1,4.84-1.07h.13c5.84.24,9,3.22,9.77,6.9a20.58,20.58,0,0,1,2.81-3.38,22.81,22.81,0,0,1,3-2.44,3.83,3.83,0,0,0-.25-.44,13.64,13.64,0,0,0-2.1-2.91,16.45,16.45,0,0,0-5.74-4,19.25,19.25,0,0,0-7.29-1.42,19.51,19.51,0,0,0-12.58,4.47,15.39,15.39,0,0,0-4.11,5A13.6,13.6,0,0,0,19,27.79a15.88,15.88,0,0,0,1.52,6.69,24.41,24.41,0,0,0,4.59,6.63,22.13,22.13,0,0,0-5.72,4.4,19,19,0,0,0-3.7,5.86,18.73,18.73,0,0,0-1.34,7.07,17.66,17.66,0,0,0,1.58,7.38,20.94,20.94,0,0,0,4.71,6.49,23.1,23.1,0,0,0,6.91,4.44,20.91,20.91,0,0,0,7.87,1.49A26.68,26.68,0,0,0,47,75.86a21.7,21.7,0,0,0,5.7-3.9V56Z"/><path class="cls-1" d="M52.65,72a23.7,23.7,0,0,0,2.83-3.21l11.31,10L71.9,73,52.65,56Z"/><path class="cls-1" d="M118.77,81.13A5.78,5.78,0,1,0,113,75.35a5.8,5.8,0,0,0,5.78,5.78"/></svg>