<svg id="email" xmlns="http://www.w3.org/2000/svg" viewBox="0 0 74.14 74.22"><defs><style>.cls-1{fill:#ea5b0b;}</style></defs><title>email</title><path class="cls-1" d="M37.6,31.23A6.39,6.39,0,1,0,44,37.62,6.39,6.39,0,0,0,37.6,31.23Z"/><path class="cls-1" d="M37.62,2.91A34.24,34.24,0,1,0,71.86,37.15,34.24,34.24,0,0,0,37.62,2.91Zm21.2,38.91A7,7,0,0,1,53.41,48a7.19,7.19,0,0,1-7.78-2.55c-.09-.1-.18-.22-.27-.33l-.1-.07a11,11,0,0,1-4.1,2.62,10.65,10.65,0,1,1,7.11-10.22c0,1.1,0,2.2,0,3.31a3.19,3.19,0,1,0,6.38,0,34.62,34.62,0,0,0-.28-6.27,17.06,17.06,0,1,0-20.2,19.85c1.11.22,2.24.29,3.41.43V59a41.09,41.09,0,0,1-4.39-.58C24.53,56.35,19,51,16.86,42.28A21.3,21.3,0,0,1,58,31.38a21.58,21.58,0,0,1,.92,6.08A30.13,30.13,0,0,1,58.82,41.82Z"/></svg>