<svg id="facebook" xmlns="http://www.w3.org/2000/svg" viewBox="0 0 74.14 74.22"><defs><style>.cls-1{fill:#ea5b0b;}</style></defs><title>facebook</title><path class="cls-1" d="M1.4,39.47v-4.3a3.33,3.33,0,0,0,.11-.53A31.89,31.89,0,0,1,4.05,23.91C9.62,11.26,19.28,3.87,33,2.08A33.12,33.12,0,0,1,53.61,6,34.9,34.9,0,0,1,71.84,31.21c.25,1.31.38,2.64.56,4v4.3c0,.2-.09.4-.12.61-.28,1.77-.4,3.59-.84,5.32-3.15,12.39-10.77,20.85-22.7,25.38-2,.75-4.12,1.16-6.26,1.75v-25h8.24c.53-3.44,1-6.79,1.57-10.23H42.47c0-2.54-.12-5,0-7.44a4.78,4.78,0,0,1,4.93-4.72c1.5-.07,3,0,4.51-.05h.73V16.47c-.07,0-.1-.09-.14-.09l-.89-.14a34.34,34.34,0,0,0-9.6-.33,11.64,11.64,0,0,0-8.48,5.17,14.46,14.46,0,0,0-2.19,7.83c-.05,2.54,0,5.09,0,7.63v.8h-9V47.61h8.93V72.36l-.64-.08A35.54,35.54,0,0,1,1.93,43.37C1.71,42.08,1.57,40.77,1.4,39.47Z"/></svg>