<?xml version="1.0" encoding="utf-8"?>
<!-- Generator: Adobe Illustrator 27.5.0, SVG Export Plug-In . SVG Version: 6.00 Build 0)  -->
<svg version="1.1" id="gps" xmlns="http://www.w3.org/2000/svg" xmlns:xlink="http://www.w3.org/1999/xlink" x="0px" y="0px"
	 viewBox="0 0 226.8 329.38" style="enable-background:new 0 0 226.8 329.38;" xml:space="preserve">
<style type="text/css">
	.st0{fill:#8ACBC1;}
</style>
<path class="st0" d="M216.13,114.31c-0.16,3.55-0.22,7-0.58,10.37s-0.85,6.77-1.51,10.12c-1.38,6.88-3.46,13.61-6.22,20.06
	c-2.02,4.74-4.38,9.33-7.07,13.73l-49.59,81.48L114.07,311c-1.63,2.68-1.31,2.7-2.91,0.06l-83-136.39c-1.51-2.49-3.05-5-4.54-7.48
	c-5.27-8.87-9.19-18.48-11.62-28.51c-0.87-3.68-1.53-7.41-2-11.16c-0.81-6.6-1.02-13.27-0.61-19.91c0.1-2,0.32-4.08,0.59-6.12
	c0.31-2.34,0.68-4.66,1.13-7c1.59-8.23,4.2-16.24,7.76-23.83C30.36,46.12,51,27.04,76.37,17.52c4.87-1.85,9.89-3.29,15-4.32
	c2.06-0.42,4.12-0.84,6.22-1.1c1.48-0.18,2.94-0.5,4.42-0.59c2.48-0.16,5-0.52,7.44-0.48c2.11,0,4.23,0,6.34,0
	c1.55-0.03,3.11,0.06,4.65,0.26c0.37,0.06,0.74,0.09,1.11,0.09c1.01,0.03,2.01,0.13,3,0.29c1.11,0.16,2.22,0.28,3.33,0.42
	c2.4,0.32,4.78,0.76,7.13,1.29c36.41,8.09,65.67,35.1,76.63,70.75c1.4,4.64,2.46,9.37,3.16,14.17c0.58,3.62,0.95,7.27,1.11,10.93
	C216,111,216.06,112.71,216.13,114.31z M200.13,114.46c-0.11-2.39-0.15-4.94-0.37-7.48c-0.28-3.15-0.72-6.29-1.32-9.4
	c-1.12-5.79-2.84-11.45-5.13-16.89c-5.91-14.19-15.48-26.55-27.73-35.84c-6.61-5.07-13.93-9.15-21.72-12.1
	c-7.59-2.94-15.57-4.75-23.68-5.37c-0.37,0-0.74-0.09-1.11-0.12c-0.8-0.07-1.61-0.16-2.41-0.17c-3.91-0.17-7.83-0.07-11.73,0.3
	c-2.42,0.13-4.82,0.42-7.2,0.89c-3.06,0.52-6.08,1.21-9.06,2.07C54.73,40,29.92,69.12,25.79,104.17c-0.32,2.66-0.49,5.33-0.53,8
	c-0.27,9.27,0.96,18.51,3.63,27.39c2.31,7.55,5.57,14.77,9.71,21.49l57.68,94.87c5.06,8.33,10.13,16.67,15.2,25
	c0.29,0.47,0.6,0.93,0.91,1.4c0.13,0.13,0.35,0.13,0.48,0c0.34-0.52,0.69-1,1-1.56c13.72-22.55,27.43-45.1,41.14-67.65
	c10.58-17.4,21.16-34.8,31.74-52.21c7.04-11.33,11.42-24.11,12.83-37.37c0.28-2.96,0.32-5.94,0.51-9.07H200.13z M112.55,74.65
	c21.92-0.04,39.75,17.65,39.87,39.57c0.08,22.01-17.7,39.93-39.71,40.01c-10.57,0.04-20.73-4.12-28.23-11.57
	c-15.59-15.48-15.67-40.67-0.18-56.26c7.48-7.52,17.65-11.75,28.25-11.74L112.55,74.65z M112.55,90.65
	c-13.13,0.06-23.72,10.74-23.67,23.87s10.74,23.72,23.87,23.67c13.12-0.06,23.71-10.73,23.67-23.85
	c0.02-13.04-10.53-23.63-23.57-23.65c-0.11,0-0.22,0-0.33,0L112.55,90.65z"/>
</svg>
