<svg id="Group_9" data-name="Group 9" xmlns="http://www.w3.org/2000/svg" width="44.674" height="33.469" viewBox="0 0 44.674 33.469">
  <path id="Path_45" data-name="Path 45" d="M441.3,173.057A3.982,3.982,0,1,1,437.281,177,4.005,4.005,0,0,1,441.3,173.057Zm-2.327,3.964a2.293,2.293,0,1,0,2.3-2.274A2.316,2.316,0,0,0,438.971,177.022Z" transform="translate(-412.574 -166.554)" fill="#ea5b0b"/>
  <path id="Path_46" data-name="Path 46" d="M428.524,163.491a.825.825,0,0,1-1.252.7,4.4,4.4,0,0,1-1.056-1.069.82.82,0,0,1,.686-1.224C427.429,161.868,428.533,162.952,428.524,163.491Z" transform="translate(-403.067 -157.071)" fill="#ea5b0b"/>
  <path id="Path_47" data-name="Path 47" d="M497.931,193.964c.187,0,.375-.015.561,0a.779.779,0,0,1,.787.788.762.762,0,0,1-.7.865,4.745,4.745,0,0,1-1.285,0,.77.77,0,0,1-.71-.863.787.787,0,0,1,.789-.791C497.555,193.95,497.743,193.964,497.931,193.964Z" transform="translate(-462.963 -184.314)" fill="#ea5b0b"/>
  <path id="Path_48" data-name="Path 48" d="M487.99,222.921c-.088.112-.222.427-.451.529a1,1,0,0,1-.829-.037,3.605,3.605,0,0,1-.979-.984.939.939,0,0,1-.013-.822,1.051,1.051,0,0,1,.713-.428C486.945,221.117,488,222.224,487.99,222.921Z" transform="translate(-453.659 -207.444)" fill="#ea5b0b"/>
  <path id="Path_49" data-name="Path 49" d="M459.831,233.659a4.455,4.455,0,0,1,0,.616.814.814,0,0,1-.9.738.783.783,0,0,1-.769-.807c-.02-.336-.016-.673,0-1.01a.842.842,0,0,1,.815-.889.852.852,0,0,1,.866.848c.015.167,0,.336,0,.5Z" transform="translate(-430.304 -216.901)" fill="#ea5b0b"/>
  <path id="Path_50" data-name="Path 50" d="M488,162.891c.007.7-1.045,1.805-1.561,1.743a1.052,1.052,0,0,1-.713-.433.939.939,0,0,1,.013-.821,3.624,3.624,0,0,1,.98-.986.989.989,0,0,1,.825-.034C487.773,162.464,487.909,162.777,488,162.891Z" transform="translate(-453.666 -157.402)" fill="#ea5b0b"/>
  <path id="Path_51" data-name="Path 51" d="M414.285,193.966c.187,0,.375-.012.561,0a.822.822,0,0,1,.821.823.81.81,0,0,1-.749.84,6.114,6.114,0,0,1-1.064.016.846.846,0,0,1-.9-.866c.011-.5.355-.8.938-.818.131,0,.262,0,.393,0Z" transform="translate(-391.903 -184.317)" fill="#ea5b0b"/>
  <path id="Path_52" data-name="Path 52" d="M458.188,150.047c0-.168-.011-.337,0-.5a.817.817,0,0,1,.822-.819.829.829,0,0,1,.851.8,7.6,7.6,0,0,1,.007,1.009.846.846,0,1,1-1.684-.033c0-.149,0-.3,0-.448Z" transform="translate(-430.337 -145.876)" fill="#ea5b0b"/>
  <path id="Path_53" data-name="Path 53" d="M427.214,223.864c-.113-.089-.44-.222-.531-.449a1.1,1.1,0,0,1,.059-.871,2.883,2.883,0,0,1,.9-.9,1.047,1.047,0,0,1,.868-.051,1.016,1.016,0,0,1,.439.706C429.02,222.81,427.916,223.865,427.214,223.864Z" transform="translate(-403.515 -207.735)" fill="#ea5b0b"/>
  <path id="Path_54" data-name="Path 54" d="M315.82,139.109c0,2.836,0,9.93,0,12.766,0,.194-.017.389-.029.669-.21-.2-.347-.319-.476-.448Q313.254,150.05,311.2,148a2.831,2.831,0,0,0-4.466.1c-1.223,1.35-2.431,2.713-3.65,4.067a1.194,1.194,0,0,1-2.047.041q-1.73-1.775-3.453-3.558c-.078-.081-.155-.163-.236-.242a.853.853,0,1,0-1.212,1.168q1.855,1.928,3.725,3.843a2.816,2.816,0,0,0,4.425-.068c1.239-1.361,2.459-2.739,3.689-4.107a1.181,1.181,0,0,1,2.006-.068q2.78,2.757,5.541,5.534a1.079,1.079,0,0,1,.284.678c.024,1.709.015,3.418.012,5.127,0,.781-.218.992-1.011.992q-19.634,0-39.268,0c-.792,0-1.008-.211-1.009-.994,0-2.216-.015-4.432.015-6.648a1.376,1.376,0,0,1,.363-.866q5.674-5.719,11.382-11.4c.808-.808,1.321-.8,2.133.034q2.239,2.3,4.472,4.609c.092.094.181.191.275.282a.879.879,0,0,0,1.291.138.851.851,0,0,0-.062-1.291q-2.4-2.5-4.823-4.976a2.836,2.836,0,0,0-4.432-.038q-5.04,5.039-10.079,10.078c-.141.14-.29.272-.5.467-.017-.227-.037-.367-.037-.508q0-8.958,0-17.916c0-.8.2-.989,1.071-.989q19.578,0,39.155,0c.885,0,1.061.179,1.062,1.055,0,2.1,0,4.207.005,6.31Zm1.684-.256c.006-2.216.012-4.432,0-6.648a2.325,2.325,0,0,0-1.725-2.3,4.46,4.46,0,0,0-1.116-.1q-6.761-.009-13.521,0h-.684v-.027H289.889c0,.009,0,.017,0,.027h-.716q-6.733,0-13.465,0a4.45,4.45,0,0,0-1.17.113,2.385,2.385,0,0,0-1.7,2.546q0,13.944,0,27.888c0,.15,0,.3,0,.451a2.386,2.386,0,0,0,2.4,2.4c.958.018,1.915,0,2.873.007.16,0,.32.021.5.034v0h33.128v-.04c1.052,0,2.043,0,3.033,0a2.446,2.446,0,0,0,2.737-2.745c0-5.709,0-15.677,0-21.386Z" transform="translate(-272.837 -129.772)" fill="#ea5b0b"/>
</svg>
