<svg id="Layer_1" data-name="Layer 1" xmlns="http://www.w3.org/2000/svg" viewBox="0 0 25.41 43.24"><defs><style>.cls-1{fill:#fff;}</style></defs><title>iconephone</title><path class="cls-1" d="M3.63,41.93a3.5,3.5,0,0,1-1.79-1A3.3,3.3,0,0,1,1,38.61q0-5.88,0-11.76Q1,15.66,1,4.45a3.31,3.31,0,0,1,.59-2.11A3.09,3.09,0,0,1,4.24,1.1H19c.78,0,1.55,0,2.32,0a3,3,0,0,1,3.21,3.14v.2q0,17.06,0,34.12a3.34,3.34,0,0,1-.8,2.39,3.57,3.57,0,0,1-1.8,1Zm-1.4-7.18v4a1.83,1.83,0,0,0,2,2H21.33a1.82,1.82,0,0,0,2-2V35.13c0-.11,0-.23,0-.38H6.77a2.07,2.07,0,0,1-.43,0,.59.59,0,0,1,0-1.16,3.2,3.2,0,0,1,.44,0H23.34V7.12H2.26V33.56c.55,0,1.08,0,1.61,0s.74.22.74.59-.27.6-.74.6Zm0-28.89h21.1c0-.58,0-1.13,0-1.67a1.81,1.81,0,0,0-2-1.89H3.87A1.75,1.75,0,0,0,2.26,3.92C2.22,4.55,2.26,5.19,2.26,5.86ZM11,37.73a1.79,1.79,0,1,1,1.75,1.8A1.79,1.79,0,0,1,11,37.73Zm1.78.6a.59.59,0,0,0,.59-.57.59.59,0,1,0-.59.57ZM15.14,4.69a.6.6,0,1,0,0-1.19H12.87a.6.6,0,1,0,0,1.19h2.27ZM10.39,3.5a.6.6,0,0,0,0,1.19.6.6,0,0,0,0-1.19Z"/></svg>