<svg id="icone" xmlns="http://www.w3.org/2000/svg" viewBox="0 0 409.89 414.28"><defs><style>.cls-1{fill:#fff;}</style></defs><title>icone</title><path class="cls-1" d="M192.25,400.28c-7.28-1-14.6-1.74-21.83-3a188.4,188.4,0,0,1-80.49-34.44,7,7,0,0,0-7.06-1.19,22.12,22.12,0,0,1-25.4-10.41,22.47,22.47,0,0,1,30.75-30.63A21.91,21.91,0,0,1,98.47,346c-1,3.2-.14,4.59,2.32,6.31,36.39,25.4,76.72,36.55,120.81,31.94,74.14-7.76,134.29-59.58,153.16-131.67,10.56-40.34,6.86-79.73-10.23-117.81-.46-1-1-2-1.41-3.06-1.79-4.36-.49-8.42,3.27-10.26a7.14,7.14,0,0,1,10.21,4c4.77,12.57,10.31,25,13.44,38C411.72,253.42,366.59,345,282.24,383.3a187.16,187.16,0,0,1-63.86,16.35,20.88,20.88,0,0,0-2.88.63ZM11.5,220.28a26,26,0,0,1,.63,3.26,178.79,178.79,0,0,0,9.12,45c2.22,6.48,4.83,12.84,7.56,19.13a7,7,0,0,0,9,4.05,7.34,7.34,0,0,0,5.08-8.51,23.41,23.41,0,0,0-1.59-4.19c-17.23-40.16-19.7-81.28-6.85-123C67.39,49,190.58-.73,288.72,53.19,295,56.65,301,60.73,306.09,63.92c-.84,5.31-2.13,9.57-2.07,13.81.16,12.68,11.37,22.08,24.54,21.08,11.87-.9,21.44-12.38,20.13-24.14-1.45-13.14-12.68-22.31-25.25-20.3a10.05,10.05,0,0,1-8.17-2c-41.39-29.32-87.39-40.84-137.61-34.3-38.58,5-72.54,20.83-101.54,46.77-33.06,29.57-53.74,66.25-61.63,110-1.28,7.11-2,14.31-3,21.47ZM203,350.77c78.5.37,142.77-63.56,143-142.23.21-78.39-63.52-142.44-142.07-142.76C125.18,65.46,61.28,129,61,207.93,60.73,286.29,124.46,350.4,203,350.77Zm-7.2-105.17H146.3a250.8,250.8,0,0,1,0-74.66h49.52Zm64.85-74.73a251,251,0,0,1,.08,74.69H211.27V170.87ZM131,245.57H81.61a126.72,126.72,0,0,1,0-74.6H131A279,279,0,0,0,131,245.57ZM276,171h49.4c7.54,24.74,7.44,49.56.06,74.6H276A279,279,0,0,0,276,171Zm-99.5-75.72c4.15-4.63,9.83-7.9,14.91-11.66,1.13-.83,2.7-1,4.4-1.68v73.59H149.05C154.38,133.41,161.19,112.31,176.48,95.26Zm46.69-7c11.22,8.6,18.44,20.35,23.63,33.17,4.19,10.36,7.13,21.23,10.59,31.88a12.77,12.77,0,0,1,.27,2.33h-46.4V81.24C215.61,83.77,219.71,85.59,223.17,88.25ZM195.7,260.86v74.39c-4.22-2.43-8.28-4.27-11.77-6.88-9.42-7-15.61-16.71-20.92-27-5.82-11.29-12.77-31.86-13.62-40.52Zm62.71.07c-2.83,9-5.26,17.78-8.32,26.29-4.53,12.65-10.45,24.7-19.88,34.43-4.35,4.49-9.93,7.79-15,11.51-1,.74-2.47.91-4,1.45V260.93Zm15-105.29C268,131.26,260.12,108,244.69,87.91c34.23,12.08,59,34.59,75,67.73ZM88,155.65c5.77-24.12,46.56-61.24,74.75-67.76-15.78,20.18-23.77,43.32-29.08,67.76ZM319,260.89c-4.81,23.31-44.82,59.82-74.8,67.93C260,308.56,268,285.44,273.37,260.89Zm-185.38,0c5.32,24.24,13.19,47.46,28.86,67.4-22.87-1.86-64.84-39.61-74.73-67.4Z"/></svg>