<?xml version="1.0" encoding="utf-8"?>
<!-- Generator: Adobe Illustrator 27.5.0, SVG Export Plug-In . SVG Version: 6.00 Build 0)  -->
<svg version="1.1" id="logo-vaz" xmlns="http://www.w3.org/2000/svg" xmlns:xlink="http://www.w3.org/1999/xlink" x="0px" y="0px"
	 viewBox="0 0 305.33 73.05" style="enable-background:new 0 0 305.33 73.05;" xml:space="preserve">
<style type="text/css">
	.st0{fill:#FFFFFF;}
</style>
<path class="st0" d="M5.82,34.73h1.65v8.39c0,3.31-1.65,4.37-3.78,4.37c-0.59,0-1.18-0.12-1.77-0.35l0.24-1.3
	c0.47,0.12,0.95,0.24,1.42,0.24c1.42,0,2.36-0.59,2.36-3.07L5.82,34.73z"/>
<path class="st0" d="M18.35,42.65c0.24,2.48-1.65,4.61-4.02,4.84c-0.12,0-0.35,0-0.47,0c-2.36,0-4.37-1.89-4.37-4.25
	c0-0.12,0-0.24,0-0.35c-0.24-2.48,1.54-4.61,4.02-4.73c0.12,0,0.35,0,0.47,0c2.36,0,4.37,1.77,4.37,4.14
	C18.35,42.41,18.35,42.53,18.35,42.65z M11.14,42.76c0,2.01,1.18,3.54,2.72,3.54s2.72-1.42,2.72-3.54c0-1.54-0.71-3.43-2.72-3.43
	S11.14,41.11,11.14,42.76z"/>
<path class="st0" d="M20.36,41.11c0-1.06,0-2.01-0.12-2.84h1.42v1.77h0.12c0.35-1.18,1.3-1.89,2.48-2.01c0.12,0,0.35,0,0.47,0v1.54
	c-0.24,0-0.35,0-0.59,0c-1.18,0.12-2.13,0.95-2.24,2.13c0,0.24,0,0.47,0,0.71v4.84h-1.65v-6.14H20.36z"/>
<path class="st0" d="M26.5,40.64c0-0.95,0-1.65-0.12-2.48h1.54l0.12,1.54l0,0c0.59-1.06,1.77-1.77,2.95-1.65
	c1.3,0,3.19,0.71,3.19,3.78v5.44h-1.65v-5.2c0-1.42-0.59-2.72-2.13-2.72c-1.06,0-1.89,0.71-2.24,1.65
	c-0.12,0.24-0.12,0.47-0.12,0.71v5.44h-1.65v-6.5H26.5z"/>
<path class="st0" d="M41.86,47.25l-0.12-1.18l0,0c-0.71,0.83-1.65,1.42-2.72,1.3c-1.42,0.12-2.72-0.95-2.84-2.36
	c0-0.12,0-0.12,0-0.24c0-2.13,1.89-3.43,5.44-3.31v-0.24c0.12-1.06-0.59-2.01-1.65-2.13c-0.12,0-0.35,0-0.47,0
	c-0.83,0-1.65,0.24-2.36,0.71l-0.35-0.95c0.95-0.59,1.89-0.83,2.95-0.83c2.72,0,3.43,1.89,3.43,3.66v3.43c0,0.71,0,1.42,0.12,2.13
	H41.86z M41.63,42.65c-1.77,0-3.78,0.24-3.78,2.01c-0.12,0.83,0.47,1.54,1.3,1.54c0.12,0,0.12,0,0.24,0c0.95,0,1.89-0.59,2.13-1.54
	c0.12-0.12,0.12-0.35,0.12-0.47C41.63,44.18,41.63,42.65,41.63,42.65z"/>
<path class="st0" d="M45.29,34.02h1.65v13.23h-1.65V34.02z"/>
<path class="st0" d="M61.48,34.02v10.99c0,0.83,0,1.77,0.12,2.36h-1.54l-0.12-1.54l0,0c-0.59,1.18-1.77,1.77-3.07,1.77
	c-2.13,0-3.9-1.89-3.9-4.61c0-2.95,1.89-4.84,4.02-4.84c1.06-0.12,2.13,0.47,2.72,1.42l0,0v-5.44h1.77V34.02z M59.82,41.94
	c0-0.24,0-0.47-0.12-0.71c-0.24-1.18-1.18-1.89-2.36-1.89c-1.65,0-2.72,1.54-2.72,3.54c0,1.77,0.95,3.31,2.72,3.31
	c1.18,0,2.13-0.83,2.36-2.01c0-0.24,0.12-0.47,0.12-0.71V41.94z"/>
<path class="st0" d="M69.16,47.25l-0.12-1.18l0,0c-0.59,0.83-1.65,1.42-2.72,1.3c-1.42,0.12-2.6-0.95-2.72-2.36
	c0-0.12,0-0.12,0-0.24c0-2.13,1.89-3.43,5.44-3.31v-0.24c0.12-1.06-0.59-2.01-1.65-2.01c-0.12,0-0.24,0-0.35,0
	c-0.83,0-1.65,0.24-2.36,0.71l-0.59-1.06c0.95-0.59,1.89-0.83,2.95-0.83c2.72,0,3.43,1.89,3.43,3.66v3.43c0,0.71,0,1.42,0.12,2.13
	H69.16z M68.92,42.65c-1.77,0-3.78,0.24-3.78,2.01c-0.12,0.83,0.47,1.54,1.3,1.54c0.12,0,0.12,0,0.24,0c0.95,0,1.89-0.59,2.24-1.54
	c0-0.12,0.12-0.35,0.12-0.47L68.92,42.65z"/>
<path class="st0" d="M72.44,59.98l6.58-9.69c3.17,2.19,6.45,4.08,9.82,5.67c3.37,1.59,6.91,2.38,10.6,2.38
	c1.96,0,3.69-0.24,5.19-0.73c1.5-0.49,2.77-1.12,3.81-1.9c1.04-0.78,1.82-1.67,2.33-2.68c0.52-1.01,0.78-2,0.78-2.98
	c0-1.27-0.39-2.35-1.17-3.25c-0.78-0.89-1.82-1.63-3.11-2.21c-1.3-0.58-2.83-1.07-4.59-1.47c-1.76-0.4-3.59-0.78-5.49-1.13
	c-1.27-0.23-2.74-0.5-4.41-0.82c-1.67-0.32-3.4-0.75-5.19-1.3c-1.79-0.55-3.55-1.27-5.28-2.16c-1.73-0.89-3.29-2.02-4.67-3.37
	c-1.38-1.35-2.49-2.97-3.33-4.84c-0.84-1.87-1.25-4.08-1.25-6.62c0-3.69,0.75-6.76,2.25-9.21c1.5-2.45,3.42-4.38,5.75-5.8
	c2.34-1.41,4.93-2.41,7.79-2.98c2.85-0.58,5.61-0.87,8.26-0.87c2.65,0,5.02,0.17,7.09,0.52c2.08,0.35,4.01,0.85,5.8,1.51
	c1.79,0.66,3.53,1.5,5.23,2.51c1.7,1.01,3.53,2.21,5.49,3.59l-6.75,9.52c-3-2.08-5.88-3.66-8.65-4.76
	c-2.77-1.09-5.68-1.64-8.74-1.64c-1.04,0-2.22,0.13-3.55,0.39c-1.33,0.26-2.58,0.68-3.76,1.25c-1.18,0.58-2.16,1.31-2.94,2.21
	c-0.78,0.9-1.17,1.98-1.17,3.25s0.46,2.33,1.39,3.2c0.92,0.87,2.1,1.59,3.55,2.16c1.44,0.58,3.03,1.07,4.76,1.47
	c1.73,0.4,3.4,0.81,5.02,1.21c1.21,0.29,2.64,0.58,4.28,0.87c1.64,0.29,3.34,0.69,5.1,1.21c1.76,0.52,3.51,1.21,5.23,2.08
	c1.73,0.87,3.27,1.98,4.63,3.33c1.36,1.36,2.45,3.03,3.29,5.02c0.83,1.99,1.25,4.4,1.25,7.22c0,3.29-0.58,6.14-1.73,8.57
	c-1.16,2.42-2.8,4.43-4.93,6.01c-2.13,1.59-4.67,2.78-7.61,3.59c-2.94,0.81-6.2,1.21-9.78,1.21c-3.29,0-6.19-0.25-8.7-0.74
	c-2.51-0.49-4.8-1.15-6.88-1.99c-2.08-0.83-4.04-1.83-5.88-2.98C76.3,62.64,74.4,61.37,72.44,59.98"/>
<path class="st0" d="M161.98,4.96c3.11,0,6.04,0.59,8.78,1.77c2.74,1.18,5.12,2.78,7.14,4.8c2.02,2.02,3.62,4.4,4.8,7.14
	c1.18,2.74,1.77,5.67,1.77,8.78c0,3.11-0.52,6-1.56,8.65c-1.04,2.65-2.57,4.97-4.59,6.96c-2.02,1.99-4.57,3.55-7.66,4.67
	c-3.09,1.13-6.65,1.69-10.68,1.69h-14.1v18.86h-12.11V4.96H161.98z M161.98,38.53c1.79,0,3.34-0.3,4.67-0.91
	c1.33-0.61,2.41-1.43,3.24-2.47c0.84-1.04,1.46-2.22,1.86-3.55c0.4-1.33,0.61-2.71,0.61-4.15c0-1.44-0.26-2.87-0.78-4.28
	c-0.52-1.41-1.27-2.67-2.25-3.76c-0.98-1.09-2.19-1.99-3.63-2.68c-1.44-0.69-3.11-1.04-5.02-1.04h-14.8v22.84H161.98z"/>
<path class="st0" d="M220.64,4.96c3.11,0,6.04,0.59,8.78,1.77c2.74,1.18,5.12,2.78,7.14,4.8c2.02,2.02,3.62,4.4,4.8,7.14
	c1.18,2.74,1.77,5.67,1.77,8.78c0,3.11-0.52,6-1.56,8.65c-1.04,2.65-2.57,4.97-4.59,6.96c-2.02,1.99-4.57,3.55-7.66,4.67
	c-3.09,1.13-6.65,1.69-10.68,1.69h-14.1v18.86h-12.11V4.96H220.64z M220.64,38.53c1.79,0,3.35-0.3,4.67-0.91
	c1.33-0.61,2.41-1.43,3.25-2.47c0.83-1.04,1.46-2.22,1.86-3.55c0.4-1.33,0.61-2.71,0.61-4.15c0-1.44-0.26-2.87-0.78-4.28
	c-0.52-1.41-1.27-2.67-2.25-3.76c-0.98-1.09-2.19-1.99-3.63-2.68c-1.44-0.69-3.11-1.04-5.02-1.04h-14.79v22.84H220.64z"/>
<path class="st0" d="M235.69,68.29l32.36-63.24h1.21l32.36,63.24h-13.15l-4.93-9.95h-29.85l-4.85,9.95H235.69z M259.57,47.78h18.08
	l-9-19.12L259.57,47.78z"/>
</svg>
