<?xml version="1.0" encoding="utf-8"?>
<!-- Generator: Adobe Illustrator 27.5.0, SVG Export Plug-In . SVG Version: 6.00 Build 0)  -->
<svg version="1.1" id="logo" xmlns="http://www.w3.org/2000/svg" xmlns:xlink="http://www.w3.org/1999/xlink" x="0px" y="0px"
	 viewBox="0 0 420.5 90.7" style="enable-background:new 0 0 420.5 90.7;" xml:space="preserve">
<style type="text/css">
	.st0{fill:#004077;}
	.st1{fill:#89C9BF;}
</style>
<path class="st0" d="M106.8,76.9l9-13.2c4.3,3,8.8,5.6,13.4,7.7c4.6,2.2,9.4,3.2,14.4,3.2c2.7,0,5-0.3,7.1-1c2-0.7,3.8-1.5,5.2-2.6
	s2.5-2.3,3.2-3.7c0.7-1.4,1.1-2.7,1.1-4.1c0-1.7-0.5-3.2-1.6-4.4c-1.1-1.2-2.5-2.2-4.2-3c-1.8-0.8-3.9-1.5-6.2-2
	c-2.4-0.5-4.9-1.1-7.5-1.5c-1.7-0.3-3.7-0.7-6-1.1s-4.6-1-7.1-1.8c-2.4-0.7-4.8-1.7-7.2-3c-2.4-1.2-4.5-2.8-6.4-4.6
	c-1.9-1.8-3.4-4-4.5-6.6s-1.7-5.6-1.7-9c0-5,1-9.2,3.1-12.6c2-3.3,4.7-6,7.8-7.9c3.2-1.9,6.7-3.3,10.6-4.1s7.6-1.2,11.3-1.2
	s6.8,0.2,9.7,0.7s5.5,1.2,7.9,2.1c2.4,0.9,4.8,2,7.1,3.4s4.8,3,7.5,4.9l-9.2,13c-4.1-2.8-8-5-11.8-6.5c-3.8-1.5-7.7-2.2-11.9-2.2
	c-1.4,0-3,0.2-4.8,0.5c-1.8,0.4-3.5,0.9-5.1,1.7c-1.6,0.8-2.9,1.8-4,3c-1.1,1.2-1.6,2.7-1.6,4.4s0.6,3.2,1.9,4.4
	c1.2,1.2,2.9,2.2,4.8,3c2,0.8,4.1,1.5,6.5,2c2.4,0.5,4.6,1.1,6.8,1.7c1.6,0.4,3.6,0.8,5.8,1.2c2.2,0.4,4.6,0.9,7,1.7
	c2.4,0.7,4.8,1.7,7.1,2.8c2.4,1.2,4.5,2.7,6.3,4.5c1.9,1.8,3.3,4.1,4.5,6.8s1.7,6,1.7,9.9c0,4.5-0.8,8.4-2.4,11.7
	c-1.6,3.3-3.8,6-6.7,8.2c-2.9,2.2-6.4,3.8-10.4,4.9c-4,1.1-8.4,1.7-13.3,1.7c-4.5,0-8.4-0.3-11.9-1c-3.4-0.7-6.5-1.6-9.4-2.7
	s-5.5-2.5-8-4.1C112.1,80.6,109.5,78.8,106.8,76.9"/>
<path class="st0" d="M228.9,1.9c4.2,0,8.2,0.8,12,2.4c3.7,1.6,7,3.8,9.7,6.5s4.9,6,6.5,9.7c1.6,3.7,2.4,7.7,2.4,12
	s-0.7,8.2-2.1,11.8c-1.4,3.6-3.5,6.8-6.2,9.5c-2.8,2.7-6.2,4.8-10.4,6.4s-9.1,2.3-14.6,2.3h-19.2v25.7h-16.5V1.9H228.9z M228.9,47.7
	c2.4,0,4.6-0.4,6.4-1.2s3.3-2,4.4-3.4c1.1-1.4,2-3,2.5-4.8c0.6-1.8,0.8-3.7,0.8-5.7c0-2-0.4-3.9-1.1-5.8c-0.7-1.9-1.7-3.6-3.1-5.1
	c-1.3-1.5-3-2.7-4.9-3.7c-2-0.9-4.2-1.4-6.8-1.4h-20.2v31.1L228.9,47.7L228.9,47.7z"/>
<path class="st0" d="M308.8,1.9c4.2,0,8.2,0.8,12,2.4c3.7,1.6,7,3.8,9.7,6.5s4.9,6,6.5,9.7c1.6,3.7,2.4,7.7,2.4,12
	s-0.7,8.2-2.1,11.8c-1.4,3.6-3.5,6.8-6.2,9.5c-2.8,2.7-6.2,4.8-10.4,6.4s-9.1,2.3-14.6,2.3h-19.2v25.7h-16.5V1.9H308.8z M308.8,47.7
	c2.4,0,4.6-0.4,6.4-1.2s3.3-2,4.4-3.4c1.1-1.4,2-3,2.5-4.8c0.5-1.8,0.8-3.7,0.8-5.7c0-2-0.4-3.9-1.1-5.8s-1.7-3.6-3.1-5.1
	c-1.3-1.5-3-2.7-5-3.7c-2-0.9-4.2-1.4-6.8-1.4h-20.2v31.1L308.8,47.7L308.8,47.7z"/>
<path class="st0" d="M329.3,88.3l44.1-86.2h1.6l44.1,86.2h-17.9l-6.7-13.6h-40.7l-6.6,13.6H329.3z M361.9,60.3h24.6l-12.3-26.1
	L361.9,60.3z"/>
<g>
	<path class="st1" d="M8.4,53.7v-1.1l2.7-0.6v1.5c0,1.4,0.5,1.8,0.7,2.1c0.7,0.7,1.4,0.7,1.8,0.7c1.1,0,1.5-0.5,1.7-0.7
		c0.6-0.7,0.6-1.5,0.6-1.9V42.3h2.8v11.3c0,2.2-0.9,3.3-1.4,3.8c-1.4,1.5-2.9,1.5-3.7,1.5c-2.4,0-3.3-1-3.8-1.4
		C8.4,56.1,8.4,54.5,8.4,53.7z"/>
	<path class="st1" d="M61.6,56.8c1.2,0,1.8-0.5,2-0.7c0.8-0.7,0.8-1.7,0.8-2.2v-0.5l-2.9,0.4C60,54.1,60,55,60,55.4
		c0,0.6,0.3,0.9,0.4,1C60.9,56.8,61.4,56.8,61.6,56.8z M57.3,55.6c0-1.4,0.6-2,0.9-2.3c0.9-0.9,1.9-1,2.4-1.1l2.9-0.4
		c0.8-0.1,0.8-0.6,0.8-0.8c0-0.8-0.4-1.1-0.5-1.2c-0.5-0.5-1.2-0.5-1.6-0.5c-1,0-1.4,0.4-1.6,0.6C60.1,50.4,60,51,60,51.3l-2.4-0.6
		c0.2-1.5,1-2.2,1.4-2.6c1.3-1.1,2.6-1.1,3.3-1.1c2.4,0,3.2,0.8,3.6,1.2c1.2,1.2,1.2,2.4,1.2,3v5.6c0,1.1,0.1,1.6,0.1,1.8h-2.5
		c-0.1-0.3-0.1-1.1-0.1-1.4c-1.1,1.8-2.7,1.8-3.4,1.8c-1.7,0-2.4-0.7-2.7-1C57.3,56.9,57.3,56,57.3,55.6z"/>
	<path class="st1" d="M98.8,56.8c1.2,0,1.8-0.5,2-0.7c0.8-0.7,0.8-1.7,0.8-2.2v-0.5l-2.9,0.4c-1.5,0.3-1.5,1.1-1.5,1.5
		c0,0.6,0.3,0.9,0.4,1C98.1,56.8,98.6,56.8,98.8,56.8z M94.6,55.6c0-1.4,0.6-2,0.9-2.3c0.9-0.9,1.9-1,2.4-1.1l2.9-0.4
		c0.8-0.1,0.8-0.6,0.8-0.8c0-0.8-0.4-1.1-0.5-1.2c-0.5-0.5-1.2-0.5-1.6-0.5c-1,0-1.4,0.4-1.6,0.6c-0.6,0.6-0.7,1.2-0.7,1.5l-2.4-0.6
		c0.2-1.5,1-2.2,1.4-2.6c1.3-1.1,2.6-1.1,3.3-1.1c2.4,0,3.2,0.8,3.6,1.2c1.2,1.2,1.2,2.4,1.2,3v5.6c0,1.1,0.1,1.6,0.1,1.8h-2.5
		c-0.1-0.3-0.1-1.1-0.1-1.4c-1.1,1.8-2.7,1.8-3.4,1.8c-1.7,0-2.4-0.7-2.7-1C94.6,56.9,94.6,56,94.6,55.6z"/>
	<path class="st1" d="M91.9,42.2v14.6c0,1.1,0.1,1.7,0.1,2h-2.5c-0.1-0.6-0.1-1.2-0.1-1.4c-0.4,0.8-1,1.1-1.3,1.2
		c-0.9,0.5-1.6,0.5-2,0.5c-2.4,0-3.4-1.1-3.9-1.7c-1.5-1.7-1.5-3.4-1.5-4.2c0-2.5,1-3.6,1.5-4.2c1.5-1.7,3-1.7,3.8-1.7
		c1.3,0,1.9,0.3,2.1,0.5c0.8,0.5,1,0.9,1.1,1.1v-6.8H91.9z M83.4,53.2c0,1.6,0.6,2.3,0.8,2.6c0.8,1,1.7,1,2.2,1c1.3,0,1.9-0.7,2.1-1
		c0.8-1,0.8-2.1,0.8-2.6c0-1.6-0.5-2.2-0.8-2.5c-0.8-0.9-1.7-0.9-2.1-0.9c-1.3,0-1.9,0.6-2.2,1C83.4,51.6,83.4,52.6,83.4,53.2z"/>
	<rect x="69.9" y="42.3" class="st1" width="2.7" height="16.6"/>
	<path class="st1" d="M48,52.3v6.5h-2.7V47.6h2.6v1.5c0.5-0.9,1.1-1.2,1.4-1.4c0.9-0.4,1.6-0.4,1.9-0.4c2,0,2.7,0.8,3,1.2
		c1,1.2,1,2.5,1,3.2v7.1h-2.7v-6.6c0-1.1-0.4-1.6-0.6-1.8c-0.6-0.7-1.3-0.7-1.7-0.7c-1.1,0-1.5,0.5-1.7,0.7C48,51.2,48,51.9,48,52.3
		z"/>
	<path class="st1" d="M27.2,47.1c2.5,0,3.6,1.1,4.2,1.7C33,50.4,33,52.1,33,53c0,2.6-1.1,3.7-1.6,4.3c-1.6,1.7-3.3,1.7-4.2,1.7
		c-2.5,0-3.6-1.1-4.1-1.7c-1.6-1.7-1.6-3.4-1.6-4.3c0-2.6,1.1-3.7,1.6-4.2C24.7,47.1,26.4,47.1,27.2,47.1z M25,55.6
		c0.9,1,1.8,1,2.2,1c1.3,0,1.9-0.6,2.2-0.9c0.9-0.9,0.9-2.1,0.9-2.6c0-1.7-0.6-2.3-0.9-2.6c-0.9-0.9-1.8-0.9-2.2-0.9
		c-1.3,0-1.9,0.6-2.2,0.9c-0.9,0.9-0.9,2-0.9,2.6C24.1,54.6,24.7,55.3,25,55.6z"/>
	<path class="st1" d="M42.7,47.4v2.7c-0.5-0.1-0.7-0.1-0.9-0.1c-3,0-3,2.2-3,3.3v5.3h-2.7V47.5h2.6v1.8c0.4-0.9,1-1.2,1.3-1.4
		c0.9-0.5,1.6-0.5,2-0.5C42.3,47.3,42.5,47.4,42.7,47.4z"/>
</g>
</svg>
