<svg id="mailok" xmlns="http://www.w3.org/2000/svg" viewBox="0 0 58.53 40.96"><defs><style>.cls-1{fill:#fff;}</style></defs><title>mailok</title><path class="cls-1" d="M57.77,36.17a12,12,0,0,1-.55,1.56,4.88,4.88,0,0,1-4.31,2.77H6a5,5,0,0,1-5-3.73,5.71,5.71,0,0,1-.17-1.43q0-14.88,0-29.77A5,5,0,0,1,6,.43H52.58a5,5,0,0,1,5.1,4.08,2,2,0,0,0,.09.26ZM6.61,3.8,7,4.21,27.73,25a2,2,0,0,0,3.07,0L51.58,4.18a4.75,4.75,0,0,0,.33-.38Zm0,33.32H52L37.64,22.92l-.39.38c-1.39,1.39-2.77,2.79-4.17,4.18a5.27,5.27,0,0,1-7.62,0L23,25l-2.05-2ZM4.15,6.28V34.6L18.44,20.45ZM54.39,34.64V6.34L40.11,20.49Z"/></svg>