<svg id="mail" xmlns="http://www.w3.org/2000/svg" viewBox="0 0 57.38 40.61"><defs><style>.cls-1{fill:#fff;}</style></defs><title>mail</title><path class="cls-1" d="M5.62,39.16a4,4,0,0,1-4.08-3A4.49,4.49,0,0,1,1.39,35q0-14.88,0-29.77A4,4,0,0,1,5.56,1.08H52.19a4,4,0,0,1,4.13,3.31.94.94,0,0,0,.07.22V35.66l-.12.37a5.39,5.39,0,0,1-.32.89,3.93,3.93,0,0,1-3.49,2.24H5.62ZM3.76,37.77H54L37.27,21.17l-1.12,1.07-1.49,1.5L32,26.42a4.27,4.27,0,0,1-6.21,0l-1.54-1.56-3.72-3.71ZM38.3,20.14,55,36.69V3.59ZM2.76,36.65,19.48,20.09,2.76,3.53ZM5.63,4.28a3.69,3.69,0,0,0,.27.28L26.64,25.37a2.93,2.93,0,0,0,4.48,0L51.91,4.54l.27-.31,1.51-1.78H3.94Z"/></svg>