<svg id="twitter" xmlns="http://www.w3.org/2000/svg" viewBox="0 0 74.14 74.22"><defs><style>.cls-1{fill:#ea5b0b;}</style></defs><title>twitter</title><path class="cls-1" d="M37.17,2.64A34.51,34.51,0,1,1,2.69,37.13,34.49,34.49,0,0,1,37.17,2.64ZM21.26,42.53a8.94,8.94,0,0,0,8.07,6.07,17.64,17.64,0,0,1-6,3,18.84,18.84,0,0,1-6.54.59c.09.13.1.18.14.21a3.73,3.73,0,0,0,.39.25,24.59,24.59,0,0,0,22.3,1.47c9.09-3.71,15-13,14.93-23.08a1.52,1.52,0,0,1,.68-1.41,15,15,0,0,0,3.5-3.77l-4.43,1.21-.1-.2a8.72,8.72,0,0,0,3.41-4.38c-1.57.56-3.12,1.11-4.67,1.68a1.12,1.12,0,0,1-1.24-.3,8.34,8.34,0,0,0-8.66-1.79,8.2,8.2,0,0,0-5.74,6.8,21.17,21.17,0,0,0,0,3.39,24.9,24.9,0,0,1-17.8-9,8.06,8.06,0,0,0-1.21,4.57A8.87,8.87,0,0,0,22,34.71l-.13.2-3.59-1a8.4,8.4,0,0,0,1.9,5.38,8.84,8.84,0,0,0,4.81,3l0,.2Z"/></svg>