<svg id="whats" xmlns="http://www.w3.org/2000/svg" viewBox="0 0 70.5 71.6"><defs><style>.cls-1{fill:#ea5b0b;}</style></defs><title>whats</title><path class="cls-1" d="M33.42,1.66h4c.19,0,.38.09.58.12,1.56.23,3.14.36,4.68.7A33.4,33.4,0,0,1,68.77,33.85a32.23,32.23,0,0,1-6.48,20.93A32.69,32.69,0,0,1,36.21,68.41,32.09,32.09,0,0,1,20,64.62a1.44,1.44,0,0,0-1.31-.07q-6.88,2.61-13.79,5.16A3.65,3.65,0,0,1,3.25,70c-1.4-.2-2-1.57-1.49-3,1.67-4.48,3.33-8.95,5-13.42A1.59,1.59,0,0,0,6.67,52,32.21,32.21,0,0,1,2.09,37a31.89,31.89,0,0,1,3.8-17.5A32.93,32.93,0,0,1,29.6,2.19C30.86,2,32.15,1.83,33.42,1.66Zm9.88,49.6a8.75,8.75,0,0,0,7.6-4.32,3.46,3.46,0,0,0,.26-3.66,10.81,10.81,0,0,0-6.69-5.15,2.64,2.64,0,0,0-2.83.85,11.06,11.06,0,0,1-1.45,1.28,2.85,2.85,0,0,1-4.1,0,30,30,0,0,1-2.43-2.08A25.43,25.43,0,0,1,29.15,33a2.15,2.15,0,0,1-.07-2.4,12.55,12.55,0,0,1,1.79-2.3,3,3,0,0,0,.77-3.41,12,12,0,0,0-3.88-5.47,4.12,4.12,0,0,0-5-.45c-3,1.64-4.22,4.25-4.12,7.56a15.69,15.69,0,0,0,2,7A37.73,37.73,0,0,0,36.26,49.23,15.92,15.92,0,0,0,43.3,51.26Z"/></svg>